<?xml version="1.0" encoding="utf-8"?>
<!-- Generator: Adobe Illustrator 27.8.1, SVG Export Plug-In . SVG Version: 6.00 Build 0)  -->
<svg version="1.1" xmlns="http://www.w3.org/2000/svg" xmlns:xlink="http://www.w3.org/1999/xlink" x="0px" y="0px"
	 viewBox="0 0 792 445.48" style="enable-background:new 0 0 792 445.48;" xml:space="preserve">
<style type="text/css">
	.st0{display:none;}
	.st1{display:inline;stroke:#000000;}
	.st2{display:inline;}
	.st3{fill:#FFFFFF;}
	.st4{fill:none;}
	.st5{fill:none;stroke:#FFFFFF;stroke-miterlimit:10;}
</style>
<g id="White_on_Black" class="st0">
	<rect class="st1" width="792" height="445.48"/>
	<g class="st2">
		<g id="Tagline_1_">
			<path class="st3" d="M219.47,333.7h9.04c5.47,0,9.25,2.81,9.25,7.61v0.09c0,5.22-4.52,7.92-9.72,7.92h-6.72v9.29h-1.86V333.7z
				 M228.15,347.61c4.63,0,7.75-2.42,7.75-6.11v-0.07c0-3.95-3.05-6.02-7.54-6.02h-7.04v12.2H228.15z"/>
			<path class="st3" d="M241.47,349.58v-0.08c0-5.26,3.7-9.46,8.61-9.46c5.09,0,8.33,4.13,8.33,9.5c0,0.33,0,0.44-0.03,0.72h-15.06
				c0.32,4.52,3.56,7.15,7.12,7.15c2.81,0,4.73-1.24,6.22-2.84l1.22,1.05c-1.86,1.99-4.02,3.42-7.51,3.42
				C245.6,359.03,241.47,355.23,241.47,349.58 M256.52,348.68c-0.26-3.67-2.35-7.04-6.52-7.04c-3.58,0-6.37,3.02-6.69,7.04H256.52z"
				/>
			<path class="st3" d="M263.51,340.47h1.74v5.15c1.43-3.24,4.46-5.59,8.04-5.44v1.91h-0.17c-4.2,0-7.87,3.17-7.87,9.07v7.45h-1.74
				V340.47z"/>
			<path class="st3" d="M278.81,342.06h-2.63v-1.59h2.63v-1.79c0-2.06,0.57-3.7,1.6-4.73c0.93-0.93,2.21-1.42,3.82-1.42
				c1.1,0,1.88,0.14,2.69,0.43v1.64c-1.03-0.31-1.77-0.46-2.69-0.46c-2.51,0-3.67,1.49-3.67,4.59v1.76h6.32v1.59h-6.32v16.55h-1.75
				V342.06z"/>
			<path class="st3" d="M289.03,349.58v-0.08c0-5.26,3.7-9.46,8.61-9.46c5.09,0,8.33,4.13,8.33,9.5c0,0.33,0,0.44-0.03,0.72h-15.05
				c0.32,4.52,3.55,7.15,7.11,7.15c2.81,0,4.73-1.24,6.23-2.84l1.21,1.05c-1.85,1.99-4.02,3.42-7.51,3.42
				C293.16,359.03,289.03,355.23,289.03,349.58 M304.08,348.68c-0.25-3.67-2.35-7.04-6.51-7.04c-3.59,0-6.37,3.02-6.69,7.04H304.08z
				"/>
			<path class="st3" d="M309.82,349.61v-0.08c0-5.08,4.06-9.5,9.26-9.5c3.41,0,5.55,1.57,7.25,3.35l-1.25,1.27
				c-1.56-1.6-3.34-2.99-6.05-2.99c-4.13,0-7.33,3.45-7.33,7.79v0.07c0,4.38,3.32,7.87,7.48,7.87c2.56,0,4.55-1.31,6.09-3.02
				l1.2,1.08c-1.86,2.09-4.05,3.58-7.4,3.58C313.84,359.03,309.82,354.69,309.82,349.61"/>
			<path class="st3" d="M332.37,353.95v-11.88h-2.65v-1.59h2.65v-5.81h1.74v5.81h6.37v1.59h-6.37v11.7c0,2.6,1.53,3.53,3.62,3.53
				c0.9,0,1.64-0.19,2.68-0.64v1.64c-0.93,0.43-1.81,0.63-2.95,0.63C334.64,358.93,332.37,357.39,332.37,353.95"/>
			<path class="st3" d="M356.31,332.63h1.75v11.2c1.2-2.13,3.23-3.81,6.54-3.81c4.6,0,7.26,3.13,7.26,7.48v11.1h-1.75v-10.79
				c0-3.73-2.09-6.19-5.76-6.19c-3.56,0-6.29,2.7-6.29,6.47v10.51h-1.75V332.63z"/>
			<path class="st3" d="M376.64,353.35v-0.07c0-3.78,3.24-5.91,7.94-5.91c2.53,0,4.27,0.32,6.02,0.78v-0.78
				c0-3.66-2.24-5.55-5.97-5.55c-2.21,0-4.02,0.61-5.7,1.46l-0.64-1.54c2-0.92,3.95-1.56,6.43-1.56c2.46,0,4.42,0.68,5.74,1.98
				c1.21,1.22,1.85,2.89,1.85,5.13v11.32h-1.71v-3.03c-1.25,1.75-3.49,3.45-6.94,3.45C380.28,359.03,376.64,357.11,376.64,353.35
				 M390.62,351.81v-2.05c-1.52-0.4-3.55-0.84-6.15-0.84c-3.84,0-5.97,1.72-5.97,4.25v0.07c0,2.63,2.49,4.16,5.27,4.16
				C387.47,357.39,390.62,355.12,390.62,351.81"/>
			<path class="st3" d="M398.57,340.47h1.75v5.15c1.42-3.24,4.44-5.59,8.03-5.44v1.91h-0.18c-4.19,0-7.85,3.17-7.85,9.07v7.45h-1.75
				V340.47z"/>
			<path class="st3" d="M412.81,340.47h1.75v3.23c1.17-1.89,2.8-3.67,6.05-3.67c3.17,0,5.12,1.82,6.11,3.91
				c1.17-2.03,3.14-3.91,6.55-3.91c4.31,0,6.97,3.02,6.97,7.58v11h-1.75v-10.79c0-3.9-2.03-6.19-5.37-6.19
				c-3.07,0-5.73,2.34-5.73,6.4v10.58h-1.75v-10.88c0-3.78-2.06-6.09-5.29-6.09c-3.24,0-5.8,2.85-5.8,6.51v10.47h-1.75V340.47z"/>
			<path class="st3" d="M445.42,349.61v-0.08c0-5.08,3.95-9.5,9.35-9.5c5.37,0,9.28,4.35,9.28,9.43v0.07c0,5.1-3.94,9.5-9.35,9.5
				C449.34,359.03,445.42,354.69,445.42,349.61 M462.18,349.61v-0.08c0-4.37-3.27-7.86-7.48-7.86c-4.3,0-7.4,3.53-7.4,7.79v0.07
				c0,4.38,3.27,7.87,7.48,7.87C459.09,357.39,462.18,353.88,462.18,349.61"/>
			<path class="st3" d="M469.44,340.47h1.75v3.37c1.2-2.13,3.23-3.81,6.54-3.81c4.6,0,7.26,3.13,7.26,7.48v11.1h-1.74v-10.79
				c0-3.73-2.1-6.19-5.77-6.19c-3.55,0-6.29,2.7-6.29,6.47v10.51h-1.75V340.47z"/>
			<path class="st3" d="M489.35,363.63l0.61-1.53c0.96,0.46,1.74,0.67,3.09,0.67c1.89,0,3.13-1.1,4.49-4.27l-8.72-18.03h2.03
				l7.54,16.22l6.55-16.22h1.93L499,359.25c-1.61,3.81-3.46,5.16-6.06,5.16C491.56,364.4,490.56,364.16,489.35,363.63"/>
			<rect x="508.29" y="355.58" class="st3" width="2.35" height="3.03"/>
			<path class="st3" d="M527.94,333.7h9.03c5.48,0,9.26,2.81,9.26,7.61v0.09c0,5.22-4.52,7.92-9.72,7.92h-6.72v9.29h-1.86V333.7z
				 M536.62,347.61c4.63,0,7.75-2.42,7.75-6.11v-0.07c0-3.95-3.05-6.02-7.53-6.02h-7.05v12.2H536.62z"/>
			<path class="st3" d="M549.94,349.58v-0.08c0-5.26,3.7-9.46,8.62-9.46c5.09,0,8.32,4.13,8.32,9.5c0,0.33,0,0.44-0.04,0.72h-15.05
				c0.32,4.52,3.56,7.15,7.12,7.15c2.8,0,4.74-1.24,6.23-2.84l1.21,1.05c-1.86,1.99-4.02,3.42-7.51,3.42
				C554.07,359.03,549.94,355.23,549.94,349.58 M564.99,348.68c-0.25-3.67-2.35-7.04-6.52-7.04c-3.58,0-6.37,3.02-6.69,7.04H564.99z
				"/>
			<path class="st3" d="M571.98,340.47h1.75v5.15c1.42-3.24,4.45-5.59,8.03-5.44v1.91h-0.17c-4.2,0-7.86,3.17-7.86,9.07v7.45h-1.75
				V340.47z"/>
			<path class="st3" d="M587.28,342.06h-2.63v-1.59h2.63v-1.79c0-2.06,0.58-3.7,1.6-4.73c0.93-0.93,2.2-1.42,3.82-1.42
				c1.1,0,1.88,0.14,2.69,0.43v1.64c-1.02-0.31-1.77-0.46-2.69-0.46c-2.5,0-3.67,1.49-3.67,4.59v1.76h6.33v1.59h-6.33v16.55h-1.75
				V342.06z"/>
			<path class="st3" d="M597.5,349.58v-0.08c0-5.26,3.71-9.46,8.61-9.46c5.09,0,8.33,4.13,8.33,9.5c0,0.33,0,0.44-0.03,0.72h-15.05
				c0.32,4.52,3.55,7.15,7.11,7.15c2.82,0,4.72-1.24,6.23-2.84l1.21,1.05c-1.85,1.99-4.02,3.42-7.51,3.42
				C601.63,359.03,597.5,355.23,597.5,349.58 M612.56,348.68c-0.26-3.67-2.36-7.04-6.52-7.04c-3.59,0-6.37,3.02-6.69,7.04H612.56z"
				/>
			<path class="st3" d="M618.29,349.61v-0.08c0-5.08,4.06-9.5,9.26-9.5c3.41,0,5.55,1.57,7.25,3.35l-1.25,1.27
				c-1.56-1.6-3.34-2.99-6.05-2.99c-4.12,0-7.33,3.45-7.33,7.79v0.07c0,4.38,3.32,7.87,7.47,7.87c2.57,0,4.57-1.31,6.09-3.02
				l1.2,1.08c-1.84,2.09-4.05,3.58-7.39,3.58C622.31,359.03,618.29,354.69,618.29,349.61"/>
			<path class="st3" d="M640.83,353.95v-11.88h-2.62v-1.59h2.62v-5.81h1.75v5.81h6.36v1.59h-6.36v11.7c0,2.6,1.52,3.53,3.63,3.53
				c0.9,0,1.64-0.19,2.67-0.64v1.64c-0.93,0.43-1.81,0.63-2.95,0.63C643.1,358.93,640.83,357.39,640.83,353.95"/>
			<path class="st3" d="M663.21,356.33l1.04-1.38c1.99,1.53,4.2,2.38,6.52,2.38c2.45,0,4.37-1.35,4.37-3.46v-0.08
				c0-2.12-2.28-2.91-4.8-3.63c-2.95-0.85-6.23-1.74-6.23-4.97v-0.07c0-2.92,2.46-5.01,5.97-5.01c2.18,0,4.63,0.78,6.44,1.98
				l-0.92,1.46c-1.67-1.1-3.66-1.81-5.59-1.81c-2.5,0-4.13,1.35-4.13,3.16v0.08c0,2.02,2.45,2.77,5.04,3.52
				c2.92,0.82,5.98,1.89,5.98,5.09v0.07c0,3.24-2.77,5.31-6.26,5.31C668.02,358.97,665.14,357.89,663.21,356.33"/>
			<path class="st3" d="M683.08,353.95v-11.88h-2.63v-1.59h2.63v-5.81h1.74v5.81h6.38v1.59h-6.38v11.7c0,2.6,1.55,3.53,3.64,3.53
				c0.88,0,1.63-0.19,2.67-0.64v1.64c-0.93,0.43-1.81,0.63-2.96,0.63C685.36,358.93,683.08,357.39,683.08,353.95"/>
			<path class="st3" d="M694.87,353.35v-0.07c0-3.78,3.23-5.91,7.94-5.91c2.53,0,4.27,0.32,6,0.78v-0.78c0-3.66-2.23-5.55-5.97-5.55
				c-2.2,0-4.02,0.61-5.7,1.46l-0.64-1.54c2-0.92,3.95-1.56,6.44-1.56c2.45,0,4.42,0.68,5.73,1.98c1.22,1.22,1.85,2.89,1.85,5.13
				v11.32h-1.71v-3.03c-1.24,1.75-3.48,3.45-6.93,3.45C698.5,359.03,694.87,357.11,694.87,353.35 M708.85,351.81v-2.05
				c-1.53-0.4-3.56-0.84-6.16-0.84c-3.84,0-5.97,1.72-5.97,4.25v0.07c0,2.63,2.5,4.16,5.27,4.16
				C705.68,357.39,708.85,355.12,708.85,351.81"/>
			<path class="st3" d="M714.73,363.63l0.61-1.53c0.96,0.46,1.75,0.67,3.09,0.67c1.9,0,3.13-1.1,4.49-4.27l-8.72-18.03h2.04
				l7.54,16.22l6.54-16.22h1.93l-7.87,18.78c-1.6,3.81-3.45,5.16-6.05,5.16C716.94,364.4,715.95,364.16,714.73,363.63"/>
			<rect x="733.64" y="355.58" class="st3" width="2.35" height="3.03"/>
		</g>
		<g>
			<g>
				<path class="st3" d="M184.78,138.8l1.26-1.53c0.45-0.53,0.71-0.88,1.48-1.84c5.29-6.73,10.08-13.56,14.55-20.68
					c1.06-1.63,2.01-3.08,2.68-4.05c1.4-2.46,2.47-4.49,3.4-6.33l2.52-5.14c2.19-4.12,4.56-8.65,7.1-13.59
					c2.56-4.94,5.29-10.3,8.19-16.02c0.57,3.77,1.19,5.29,1.85,5.95c0.25,0.22,0.48,0.33,0.71,0.32l0.29-0.08l0.03-0.07
					c0.06-0.01,0.02,0.8,0.03,1.27l-0.03,1.83l-0.04,3.64c-0.09,4.82-0.19,9.56-0.32,14.3l-0.21,7.18c-0.11,2.42-0.17,4.84-0.3,7.38
					c-0.28,5.1-0.69,10.56-1.38,16.4c-0.64,5.81-1.51,12.02-2.62,18.39c-0.29,1.59-0.59,3.19-0.9,4.82l-0.71,3.78
					c-0.39,2.09-0.82,4.21-1.27,6.31c-0.19,0.95-0.41,1.9-0.61,2.83c0.92-0.61,1.85-1.23,2.76-1.82c0.63-2.76,1.22-5.51,1.78-8.27
					l0.45-2.27l0.52-2.67c0.33-1.77,0.67-3.55,0.96-5.29c0.61-3.54,1.16-7.02,1.63-10.45c0.96-6.82,1.63-13.38,2-19.44
					c0.2-3.04,0.34-5.97,0.43-8.76c0.07-2.8,0.09-5.49,0.14-8.19c0.06-5.4,0.1-10.72,0.12-16.18l-0.01-8.35l-0.01-2.13v-0.93
					l-0.02-0.02l-0.1-0.06c-0.14-0.14-0.29-0.31-0.44-0.6c-0.29-0.54-0.6-1.39-0.92-2.69c-0.32-1.33-0.65-3.1-1.02-5.77l-9.66,20.13
					l-8.36,17.28c-1.28,2.63-2.51,5.18-3.66,7.31c-1.16,2.17-2.26,4.15-3.36,6.02c-2.2,3.75-4.3,7.18-6.38,10.42
					c-2.11,3.1-4.21,6.07-6.37,8.98c-1.09,1.46-2.18,2.9-3.25,4.32l-1.47,1.87l-1,1.27c-2.67,3.36-5.42,6.67-8.23,9.89
					c1.75-1.81,3.5-3.73,5.23-5.69C183.09,140.81,183.94,139.81,184.78,138.8z M228.16,235.34l0.12-0.12l-0.57-0.67l-0.13,0.09
					L228.16,235.34z M226.92,233.58l0.79,0.97c0.23-0.13,0.47-0.28,0.68-0.41l-0.81-0.98C227.36,233.3,227.15,233.44,226.92,233.58z
					 M64.97,177.12c1.08,3.33,2.36,6.42,3.73,8.85c1.37,2.44,2.78,4.2,3.8,4.94c1.98,2.69,4.34,5.12,7.04,7.12
					c0.74,0.56,1.46,1.03,2.05,1.4c0.6,0.36,1.21,0.72,1.81,1.1c1.24,0.7,2.51,1.36,3.78,1.97c5.11,2.44,10.59,4.01,16.16,4.62
					c3.14,0.34,6.27,0.39,9.41,0.17c2.46-0.19,4.9-0.53,7.32-1.01c5.54-1.12,10.95-2.98,16.3-5.48c9.8-4.66,18.29-10.84,26.04-17.54
					c7.75-6.76,14.77-14.11,21.33-21.76c3.27-3.84,6.44-7.76,9.52-11.76l2.27-2.99l1.14-1.53l0.58-0.76l0.19-0.26l0.16-0.23
					c0.81-1.14,1.63-2.33,2.45-3.54c3.31-4.86,6.76-10.24,9.95-15.71c1.23-2.1,2.41-4.23,3.49-6.31l0.81-1.56l0.17-0.39l0.02-0.05
					v0.41l-0.02,0.93c-0.04,1.25-0.1,2.53-0.17,3.8c-0.33,5.1-0.99,10.33-1.91,15.26c-0.28,1.47-0.34,3.57-0.51,6.05
					c-0.15,2.42-0.39,5.26-0.64,7.15l-0.75,3.61l-0.85,3.82c-0.55,2.54-1.17,5.07-1.81,7.59c-0.78,3.08-1.59,6.14-2.45,9.18
					c0.79-0.52,1.58-1.05,2.37-1.57l2.13-1.4l2.1-1.48l4.46-3.09l0.13-0.09c0.42-2.1,0.81-4.15,1.17-6.18
					c0.43-2.45,0.81-4.86,1.18-7.19l0.63-4.13l0.62-4.3c0.77-5.6,1.31-10.85,1.75-15.97c0.43-5.12,0.74-10.11,0.99-15.38
					c0.25-5.3,0.49-10.97,0.59-17.48l0.06-5.08c-0.59,1.07-1.22,2.22-1.88,3.25c-1.33,2.07-2.78,4.02-4.28,5.08
					c-1.64,2.92-3.37,5.9-5.14,8.89c1.67-2.91,3.47-6.12,5.35-9.68c1.67-1.39,3.4-3.8,5.07-6.57c0.42-0.69,0.82-1.42,1.23-2.17
					c0.07-0.2,0.12-0.28,0.16-0.28c0.1,0,0.03,0.67,0.06,1l0.03,1.64c0.01,2.19,0.03,4.37,0.02,6.56c-0.01,4.38-0.09,8.78-0.2,13.22
					c-0.13,4.42-0.32,8.97-0.65,13.73c-0.34,4.77-0.81,9.73-1.44,14.76c-0.3,2.52-0.65,5.06-1.01,7.56l-1.01,6.64
					c-0.62,4.01-1.23,7.73-1.82,11.07l0.44-0.3c0.79-3.55,1.59-7.36,2.35-11.36l0.6-3.13l0.67-3.8c0.45-2.55,0.87-5.13,1.26-7.72
					c0.78-5.17,1.38-10.36,1.85-15.4c0.44-5.06,0.75-9.97,0.9-14.68c0.17-4.77,0.29-9.53,0.34-14.4c0.04-2.45,0.05-4.91,0.04-7.41
					l-0.03-3.8l-0.01-0.48v-0.34l-0.03,0.06l-0.24,0.35c-0.16,0.24-0.33,0.46-0.5,0.68c-0.68,0.84-1.4,1.53-2.14,1.97
					c-0.44,0.26-0.89,0.42-1.34,0.46c-0.32,0.02-0.63-0.03-0.97-0.16c-3.33,6.65-6.47,12.82-9.38,18.36
					c-1.47,2.77-2.87,5.41-4.21,7.9c-1.34,2.47-2.61,4.59-3.88,6.63c-2.52,4.07-4.96,7.75-7.41,11.26
					c-1.23,1.77-2.43,3.47-3.67,5.16l-1.83,2.47l-1.57,2.09c-7.58,9.97-15.37,18.77-22.62,25.76c-10.08,9.7-18.11,15.64-24.69,19.84
					c-6.61,4.16-11.79,6.62-16.91,8.52c-2.57,0.93-5.15,1.7-7.94,2.29c-1.93,0.4-3.96,0.71-6.17,0.87
					c-0.99,0.07-2.01,0.11-3.07,0.11c-3.42,0-7.28-0.42-11.6-1.73c-2.15-0.66-4.42-1.53-6.76-2.71c-1.16-0.59-2.38-1.25-3.55-1.99
					c-1.15-0.73-2.29-1.62-3.36-2.64c-0.93-0.91-2.2-2.22-3.51-4.06c-1.31-1.84-2.66-4.2-3.83-7.02
					c-2.34-5.63-3.81-13.04-4.16-20.88c-0.38-7.85,0.25-16.13,1.43-23.74c1.15-7.64,2.88-14.62,4.55-20.1
					c-3.05,9.12-5.09,17.89-6.24,26.17c-1.16,8.29-1.47,16.12-0.85,23.31c0.61,7.19,2.17,13.8,4.9,19.37
					c1.33,2.77,2.98,5.26,4.87,7.39c0.95,1.05,1.95,2.01,3.01,2.88c0.5,0.43,1.06,0.83,1.59,1.22c0.55,0.37,1.09,0.71,1.61,1.05
					c3.49,2.02,7.26,3.64,11.23,4.71c4.01,1.07,8.18,1.57,12.35,1.49c0.79-0.03,1.58-0.06,2.36-0.12c7.56-0.54,14.92-2.9,21.68-6.14
					c7.47-3.61,14.29-8.28,20.51-13.28c6.22-5.02,11.86-10.39,16.96-15.72c5.1-5.34,9.66-10.63,13.72-15.65
					c2.03-2.51,3.94-4.94,5.71-7.28l2.7-3.59c0.93-1.25,1.82-2.47,2.68-3.67c3.41-4.79,6.32-9.11,8.67-12.8
					c1.16-1.84,2.22-3.55,3.1-5.09l2.21-3.74c0.79-1.37,1.24-2.08,1.27-2.08c0.01,0-0.03,0.12-0.17,0.39
					c-0.41,0.85-1.66,3.22-3.73,6.85c-2.06,3.64-4.89,8.16-8.64,13.73c-1.89,2.76-4.03,5.81-6.39,9.02
					c-2.27,3.08-4.83,6.46-7.74,10.09c-5.89,7.24-13.12,15.64-22.69,24.41c-4.79,4.36-10.18,8.82-16.4,12.97
					c-6.23,4.14-13.33,8.05-21.62,10.56c-3.68,1.1-7.61,1.9-11.71,2.19c-0.5,0.04-1,0.07-1.51,0.1c-4.64,0.19-9.5-0.34-14.28-1.71
					c-2.4-0.7-4.77-1.59-7.07-2.69c-1.16-0.55-2.3-1.14-3.42-1.79c-0.57-0.32-1.1-0.64-1.69-1.01c-0.57-0.34-1.17-0.81-1.71-1.2
					c-2.21-1.68-4.14-3.72-5.79-6c-1.63-2.29-2.98-4.78-4.05-7.4c-2.14-5.25-3.28-10.88-3.83-16.63
					c-0.53-5.79-0.46-11.68,0.04-17.67c1.03-11.98,3.69-24.32,7.92-36.81c-0.91,2.37-4.05,10.78-6.53,22.61
					c-1.24,5.91-2.29,12.7-2.69,19.97c-0.36,7.25-0.13,15.05,1.72,22.76c0.94,3.85,2.3,7.68,4.26,11.23
					c1.96,3.55,4.59,6.82,7.72,9.31c0.77,0.61,1.67,1.28,2.46,1.74c0.75,0.49,1.54,0.96,2.3,1.4c1.55,0.88,3.13,1.67,4.7,2.36
					c3.12,1.38,6.27,2.36,9.25,2.99c5.45,1.15,10.26,1.15,13.85,0.9c0.33-0.02,0.65-0.05,0.96-0.07c3.69-0.33,5.96-0.84,6.51-0.88
					c0.21,0.01-0.3,0.19-1.48,0.47c-1.18,0.28-3.02,0.63-5.48,0.9c-0.57,0.06-1.15,0.12-1.79,0.17c-2.1,0.15-4.55,0.19-7.3-0.05
					c-3.56-0.28-7.6-1.02-11.81-2.5c-2.1-0.74-4.23-1.64-6.37-2.75c-1.06-0.54-2.12-1.14-3.18-1.78l-0.79-0.47
					c-0.27-0.19-0.55-0.35-0.84-0.56l-0.89-0.64c-0.27-0.2-0.55-0.41-0.83-0.64c-2.18-1.74-4.14-3.84-5.8-6.18
					c-1.66-2.33-3.04-4.87-4.13-7.52c-2.2-5.3-3.36-10.93-3.93-16.57c-0.54-5.67-0.49-11.35-0.07-16.96
					c0.9-11.21,3.27-22.11,6.27-32.02c3.02-9.91,6.71-18.86,10.54-26.23c3.81-7.39,7.78-13.16,10.96-16.92
					c2.95-3.47,5.12-5.23,5-5.23l-0.07,0.04c-0.99,0.69-3.06,2.35-5.5,4.96c-2.45,2.61-5.27,6.16-8.04,10.45
					c-5.6,8.55-11.12,20.06-15.23,32.34c-4.15,12.27-6.86,25.35-7.55,36.72c-0.38,5.67-0.25,10.92,0.23,15.32
					C63.5,171.34,64.31,174.88,64.97,177.12z M231.67,239.38l0.78,0.96c0.18-0.18,0.37-0.37,0.55-0.56l-0.77-0.94
					C232.03,239.01,231.84,239.2,231.67,239.38z M253.02,222.22c-0.67,0.31-1.33,0.61-1.99,0.92c-1.7,0.79-3.38,1.65-5.03,2.54
					c1.38-0.97,2.76-1.98,4.13-2.97c-0.19,0.09-0.38,0.19-0.56,0.26c-6.85,3.23-13.4,7.19-19.07,12.28
					c-0.23,0.2-0.47,0.41-0.68,0.62l0.31,0.38c1.03-0.62,2.06-1.26,3.06-1.9c-0.9,0.76-1.79,1.57-2.66,2.39l0.33,0.41
					c7.25-4.35,14.19-9.12,20.99-14.07C252.24,222.81,252.63,222.52,253.02,222.22z M231.01,238.82l0.55,0.68l0.11-0.12l-0.53-0.65
					L231.01,238.82z M474.78,171.64c-0.34,0.03-0.79,0.06-1.33,0.14c-7.01,0.92-14.16,1.99-21.38,3.12
					c-19.39,3.62-39.49,7.23-59.64,11.43c-20.14,4.19-40.33,8.97-59.81,14.83c-14.11,3.8-29.26,8.92-44.2,14.58
					c-0.81,0.28-1.71,0.59-2.73,0.96l-1.58,0.57l-1.76,0.58l-7.16,2.39c-4.83,1.6-9.42,3.13-12.08,3.69
					c5.42-2.22,11.04-4.21,16.77-6.2l2.15-0.74c0.68-0.23,1.55-0.53,2.24-0.78l4.3-1.57c2.84-1.03,5.67-2.02,8.52-3.02
					c11.38-3.96,22.86-7.62,34.4-11.05c23.08-6.87,46.4-12.78,69.81-18.09c-2.66,0.3-4.92,0.35-8.54,1.38l1.64-1.18l-9.59,2.01
					c3.21-1.1,10.82-2.91,16.52-4.2c4.59-1.05,7.92-1.81,6.84-1.72c-0.27,0.01-0.82,0.08-1.69,0.21
					c-21.28,3.74-42.54,8.66-63.85,14.7c-3.64,0.85-7.32,1.71-10.96,2.62l5.1-0.94c-3.81,1.13-7.67,2.29-11.49,3.47
					c-3.91,1.06-7.82,2.15-11.71,3.28c0.25-0.05,0.48-0.11,0.73-0.16c-1.24,0.35-2.46,0.67-3.71,1.01
					c-3.42,1.01-6.87,2.04-10.3,3.09c-4.15,1.27-8.29,2.59-12.43,3.95l-6.22,2.06l-6.25,1.95c-5.99,1.93-11.96,3.92-17.77,6.28
					c-0.98,0.78-1.98,1.54-2.99,2.3c-2.45,1.85-4.94,3.66-7.44,5.46c0.59-0.32,1.18-0.64,1.78-0.95c6.41-3.35,13.24-6.01,20.22-8.45
					c-6.82,2.61-13.49,5.46-19.74,8.96c-6.03,3.35-11.65,7.34-16.43,12.2l4.01,4.93c5.81-5.8,13.16-10.2,21.27-13.81
					c4.07-1.82,8.32-3.45,12.7-5c4.4-1.54,8.87-3,13.55-4.53l7.02-2.41l6.79-2.3c4.55-1.53,9.13-3.01,13.76-4.48
					c9.22-2.91,18.58-5.75,28.14-8.55c35.22-10.45,70.34-18.31,109.7-25.69C463.46,175.53,480.06,171.26,474.78,171.64z
					 M231.81,238.31l0.43,0.52c0.89-0.87,1.81-1.71,2.75-2.52C233.94,236.99,232.87,237.66,231.81,238.31z M229.01,236.92l0.61,0.71
					l0.21-0.24l-0.52-0.65L229.01,236.92z M229.44,236.67l0.51,0.63c0.19-0.19,0.37-0.37,0.56-0.55l-0.41-0.49
					C229.9,236.38,229.66,236.53,229.44,236.67z M230.04,237.64l0.13-0.08l-0.21-0.26l-0.12,0.1L230.04,237.64z M228.39,234.14
					l0.44,0.55c0.99-0.94,1.99-1.85,3.03-2.71C230.7,232.73,229.56,233.44,228.39,234.14z M259.43,209.69
					c8.99-7.47,17.55-15.32,25.11-23.83c3.17-3.47,6.15-7.07,8.82-10.84c2.63-3.76,4.96-7.72,6.54-11.88
					c1.56-4.12,2.32-8.52,1.35-12.62c-0.22-1.03-0.58-2.03-1-2.98c-0.22-0.48-0.48-0.96-0.74-1.42c-0.13-0.23-0.28-0.46-0.42-0.67
					l-0.28-0.44l-0.2-0.31c-1.07-1.67-2.72-2.88-4.7-3.57c-2.01-0.68-4.22-0.86-6.48-0.78c-0.33,0.01-0.67,0.03-1.01,0.05
					c-1.92,0.14-3.86,0.46-5.8,0.89c-4.52,1-8.96,2.54-13.33,4.28c-8.7,3.57-17.11,7.97-25.36,12.71
					c-7.06,4.11-14.03,8.48-20.92,13.06c0.13-0.45,0.23-0.9,0.34-1.35c9.51-6.37,19.23-12.45,29.31-17.89
					c5.29-2.85,10.69-5.53,16.24-7.83c5.55-2.3,11.27-4.31,17.28-5.22c0.84-0.12,1.7-0.22,2.56-0.27c2.17-0.17,4.34-0.09,6.46,0.4
					c1.47,0.36,2.9,0.92,4.17,1.78c1.24,0.84,2.26,1.99,3.05,3.25c1.7,2.46,2.76,5.33,3.05,8.27c0.32,2.93-0.06,5.9-0.85,8.72
					c-1.59,5.7-4.59,10.88-7.99,15.71c-3.4,4.84-7.27,9.33-11.37,13.62c-8.19,8.57-17.21,16.36-26.55,23.71
					c-4.18,3.27-8.44,6.45-12.76,9.54c2.94-1.64,5.96-3.1,9-4.4c1.17-0.51,2.36-0.99,3.54-1.47c4.98-3.83,9.87-7.82,14.62-11.97
					c6.59-5.78,12.97-11.87,18.78-18.53c2.88-3.33,5.65-6.82,8.14-10.56c2.47-3.72,4.73-7.68,6.32-12.03
					c0.78-2.18,1.4-4.45,1.73-6.83c0.31-2.38,0.33-4.86-0.12-7.32c-0.44-2.44-1.34-4.86-2.67-6.99c-0.17-0.28-0.34-0.53-0.52-0.81
					l-0.45-0.67c-0.38-0.56-0.81-1.11-1.3-1.63c-0.95-1.01-2.08-1.88-3.28-2.54c-2.45-1.33-5.09-1.84-7.57-1.96
					c-1.22-0.07-2.4-0.05-3.58,0.04c-1.23,0.08-2.45,0.23-3.64,0.44c-4.64,0.78-9.02,2.18-13.26,3.78
					c-8.48,3.25-16.44,7.35-24.21,11.73c-7.75,4.39-15.29,9.12-22.69,14.05c-0.2,0.14-0.41,0.27-0.61,0.41
					c0.2-0.83,0.38-1.63,0.58-2.44c-0.91,0.6-1.8,1.21-2.71,1.83h-0.01c-0.19,0.8-0.37,1.61-0.56,2.42
					c-0.69,0.46-1.38,0.94-2.06,1.41c0.19-0.79,0.37-1.62,0.58-2.45l-0.32,0.21c-0.15,0.82-0.29,1.6-0.44,2.36
					c-0.54,0.37-1.08,0.75-1.63,1.13c0.18-0.83,0.35-1.63,0.52-2.42c-0.55,0.37-1.11,0.76-1.66,1.14l-2.74,1.91l-0.67,0.48
					l-0.33,0.22l-0.17,0.11l-1.43,0.93c-1.45,0.95-2.91,1.93-4.36,2.9c-0.23,0.84-0.49,1.67-0.73,2.51
					c-1.08,0.71-2.13,1.45-3.18,2.16c-7.35,5.04-14.55,10.27-21.63,15.7c-14.15,10.87-27.75,22.5-40.71,34.88
					c-12.95,12.37-25.27,25.47-36.78,39.34c-5.74,6.94-11.3,14.06-16.63,21.38l-3.9,5.41c-1.33,1.85-2.63,3.73-3.94,5.64
					c-2.57,3.82-5.06,7.75-7.38,11.83c-2.99,5.2-5.77,10.65-8.03,16.59c-0.15,1-0.12,1.59,0.15,1.66c-0.27-0.06-0.3-0.66-0.16-1.66
					c0.36-2.17,1.66-6.28,3.73-10.85c-2.86,5.74-5.45,11.79-7.24,18.67c-0.99,3.93-1.73,8.14-1.75,12.75
					c-0.01,2.3,0.17,4.69,0.63,7.14c0.45,2.45,1.19,4.96,2.3,7.4c1.08,2.42,2.52,4.76,4.22,6.83c1.7,2.06,3.64,3.89,5.66,5.4
					c0.51,0.38,1.02,0.76,1.55,1.1l0.78,0.51l0.87,0.54c1.28,0.74,2.37,1.28,3.59,1.81c2.42,1.02,5.04,1.78,7.74,2.17
					c2.28,0.35,4.59,0.4,6.83,0.26c0.41-0.05,0.8-0.08,1.19-0.12c2.6-0.27,5.1-0.86,7.4-1.61c4.64-1.54,8.6-3.74,12.16-6.12
					c3.54-2.4,6.7-5.04,9.61-7.77c2.92-2.72,5.61-5.55,8.16-8.44c-2.77,3-5.69,5.92-8.86,8.72c-3.16,2.79-6.59,5.46-10.47,7.86
					c-3.88,2.38-8.26,4.49-13.34,5.71c-1.57,0.36-3.22,0.65-4.88,0.78c1.59-0.15,3.17-0.44,4.66-0.81
					c4.22-1.05,7.95-2.75,11.28-4.68c3.33-1.94,6.27-4.13,9.01-6.4c5.46-4.58,10.06-9.56,14.3-14.64c4.2-5.1,8.02-10.31,11.63-15.58
					c3.59-5.25,6.96-10.58,10.18-15.6c0.54-0.85,1.12-1.71,1.69-2.55l0.33-0.48l0.35-0.56l0.47-0.76l0.95-1.52l4.07-6.46
					c2.81-4.5,5.75-9.3,8.62-14.15c5.73-9.7,11.08-19.62,14.59-27.32c7.06-15.05,13.65-30.53,19.61-46.32
					c5.11-13.54,9.75-27.31,13.75-41.25l1.54-1.01l2.61-1.86c3.19-2.27,6.41-4.48,9.61-6.65c6.41-4.3,12.86-8.4,19.34-12.19
					c6.5-3.75,13.02-7.22,19.53-10.04c3.23-1.4,6.46-2.65,9.61-3.58c2.85-0.86,5.67-1.47,8.04-1.65c0.23-0.02,0.46-0.02,0.68-0.03
					c1.23-0.07,2.29-0.01,3.02,0.14c0.73,0.14,1.02,0.34,1.12,0.43l0.18,0.2l0.54,0.8c0.1,0.13,0.25,0.36,0.34,0.54
					c0.45,0.77,0.75,1.54,0.93,2.4c0.38,1.69,0.29,3.85-0.36,6.33c-0.64,2.47-1.78,5.15-3.24,7.81
					c-2.94,5.38-7.02,10.68-11.53,15.79c-4.57,5.12-9.6,10.07-15,14.93c-6.53,5.88-13.28,11.34-20.1,16.48
					c-3.41,2.55-6.84,5.04-10.28,7.4c-3.42,2.36-6.93,4.67-10.26,6.68l4.02,4.93c1.17-0.74,2.36-1.51,3.52-2.3
					C240.97,224.28,250.44,217.14,259.43,209.69z M58.13,353.02c-0.02-2.44,0.2-4.79,0.53-7.03
					C58.33,348.23,58.12,350.58,58.13,353.02z M213.92,178.46c0.17-0.1,0.35-0.21,0.52-0.31c-0.17,0.12-0.35,0.22-0.52,0.34V178.46z
					 M211.02,189.54l0.41-0.28l1.74-1.2c-2.21,6.74-4.55,13.32-7.03,19.95c-3.46,9.25-7.15,18.55-11.11,28.42
					c-1.97,4.84-4.02,10.54-6.17,16.12c-2.14,5.6-4.39,11.08-6.63,15.49c-5.66,11.59-11.3,22.49-17.09,32.92
					c-2.89,5.22-5.82,10.31-8.82,15.3l-2.28,3.74l-1.17,1.88l-1.28,1.92c-1.51,2.27-3.04,4.68-4.59,7.05
					c-6.22,9.58-12.74,19.16-20.7,28.15c-4,4.48-8.37,8.84-13.52,12.76c-2.58,1.95-5.39,3.81-8.49,5.37
					c-3.1,1.55-6.56,2.84-10.35,3.5c-0.76,0.13-1.5,0.22-2.22,0.27c-2.18,0.16-4.17-0.04-6.07-0.41c-1.97-0.39-3.86-0.95-5.92-1.73
					c1.46,0.52,2.99,0.92,4.53,1.17c2.05,0.33,4.11,0.42,6.14,0.27c0.16-0.01,0.32-0.02,0.47-0.03c4.35-0.39,8.34-1.76,11.86-3.5
					c3.54-1.76,6.69-3.89,9.58-6.16c2.88-2.29,5.52-4.74,8.02-7.26c4.95-5.06,9.32-10.44,13.39-15.9
					c4.07-5.47,7.83-11.08,11.48-16.68c1.82-2.79,3.63-5.61,5.41-8.27l0.74-1.06l0.75-1.18l1.33-2.17l2.63-4.32
					c3.47-5.8,6.81-11.71,10.08-17.7c6.55-12.03,12.75-24.46,18.74-37.48c4.01-8.27,7.05-14.94,10.15-22.06
					c2.83-7.64,5.33-14.74,7.52-20.85C206.1,205.87,208.84,197.29,211.02,189.54z M121.28,272.42c-1.18,0.08,1.57-3.72,5.33-8.11
					c3.8-4.47,8.67-9.52,11.19-12.04c18.56-19.67,38.69-37.4,59.6-52.98c-1.24,3.54-2.51,7.07-3.83,10.57
					c-7.4,19.66-15.91,39.01-25.01,58.27c-5.7,11.8-12.31,23.45-19.37,34.73c-1.78,2.83-3.57,5.62-5.39,8.4l-1.38,2.07l-0.69,1.05
					c-0.13,0.19-0.16,0.22-0.23,0.32l-0.35,0.49c-1.05,1.44-2.02,2.84-2.97,4.23c-3.83,5.58-7.48,11.01-11.22,16.28
					c-4.38,6.29-9.04,12.32-14.15,17.75c-2.55,2.69-5.22,5.23-8.01,7.45c-2.77,2.22-5.7,4.13-8.66,5.43
					c-2.26,0.99-4.5,1.62-6.66,1.76c-0.66,0.04-1.31,0.04-1.94,0c-1.35-0.08-2.67-0.37-3.97-0.84c-0.65-0.25-1.31-0.55-1.9-0.87
					c-0.29-0.15-0.53-0.3-0.85-0.5c-0.32-0.21-0.62-0.41-0.92-0.63c-2.37-1.74-4-3.84-4.97-6.38c-0.97-2.55-1.25-5.62-0.97-8.88
					c0.27-3.26,1.08-6.69,2.21-10.11c1.12-3.41,2.57-6.83,4.22-10.21c3.29-6.75,7.33-13.32,11.73-19.71
					c1.1-1.62,2.23-3.19,3.39-4.78l3.52-4.88c2.33-3.2,4.7-6.35,7.12-9.48c4.87-6.26,9.92-12.4,15.17-18.43L121.28,272.42z
					 M81.21,308.42c-5.94,9.38-10.91,18.74-14,28.17c-1.53,4.71-2.58,9.47-2.75,14.2c-0.19,4.7,0.6,9.47,2.66,13.49
					c2.01,4.07,5.16,7.15,8.36,9.26c0.78,0.51,1.69,1.04,2.53,1.45c0.84,0.41,1.71,0.78,2.56,1.09c1.72,0.62,3.46,1,5.13,1.22
					c1.06,0.13,2.08,0.18,3.07,0.16c0.43-0.01,0.85-0.03,1.26-0.06c0.32-0.02,0.65-0.06,0.97-0.09c4.83-0.54,9.24-2.4,13.13-4.72
					c3.9-2.31,7.37-5.11,10.6-8.07c3.22-2.99,6.19-6.16,8.98-9.44c5.6-6.54,10.56-13.46,15.25-20.46c2.34-3.5,4.62-7.02,6.89-10.51
					l3.46-5.26c1.12-1.77,2.2-3.55,3.27-5.34c8.61-14.31,16.31-28.95,23.29-43.77c6.98-14.79,13.25-29.76,18.81-44.82
					c-7.28,22.42-19.63,51.88-37.3,82.19c-2.21,3.78-4.5,7.59-6.88,11.38l-7.48,11.26c-5.01,7.57-10.3,15.19-16.28,22.42
					c-2.99,3.64-6.15,7.16-9.57,10.49c-2.68,2.59-5.53,5.06-8.64,7.29h-0.02c0,0-0.2,0.14-0.61,0.4c-0.96,0.66-3.07,2.17-6.62,3.93
					c-1.78,0.84-3.93,1.74-6.54,2.4c-1.39,0.34-2.91,0.61-4.55,0.73c-0.48,0.03-0.95,0.05-1.44,0.06c-1.71,0.03-3.41-0.12-5.1-0.46
					c-2.43-0.49-4.69-1.37-6.88-2.56c1.25,0.69,2.54,1.29,3.87,1.77c-1.29-0.46-2.59-1.04-3.87-1.77c-0.85-0.48-1.61-0.97-2.38-1.53
					c-0.77-0.55-1.52-1.15-2.22-1.79c-1.42-1.25-2.7-2.71-3.8-4.32c-2.19-3.21-3.42-6.97-3.89-10.69
					c-0.48-3.72-0.26-7.41,0.34-10.94c0.59-3.55,1.55-6.96,2.72-10.28c2.3-6.63,5.42-12.87,8.85-18.89
					c3.43-6.03,7.26-11.8,11.28-17.42C84.61,302.97,82.22,306.65,81.21,308.42z M103.75,373.05c-1.73,0.99-3.56,1.88-5.48,2.6
					C100.55,374.77,102.33,373.84,103.75,373.05z M94.89,376.73c-0.73,0.18-1.53,0.35-2.37,0.48c-0.17,0.03-0.36,0.06-0.54,0.09
					c-0.59,0.1-1.18,0.16-1.77,0.2c-0.09,0-0.18,0-0.27,0.01c0.08,0,0.18-0.01,0.26-0.01c0.8-0.07,1.58-0.16,2.32-0.29
					C93.33,377.08,94.12,376.92,94.89,376.73z M84.6,377.22c-0.16-0.03-0.31-0.04-0.47-0.07c-0.22-0.04-0.44-0.1-0.66-0.15
					C83.85,377.08,84.23,377.16,84.6,377.22z M80.33,383.32c-0.52-0.16-1.03-0.34-1.54-0.52c0.51,0.18,1.02,0.36,1.55,0.52
					c1,0.29,2.03,0.52,3.07,0.71C82.37,383.84,81.33,383.61,80.33,383.32z M154.66,322.78c-0.12,0.21-0.32,0.52-0.51,0.77
					l-0.32,0.48l-0.63,0.86l-2.52,3.72l-5.18,7.66c-3.53,5.16-7.22,10.29-11.18,15.3c-3.95,5-8.18,9.9-12.95,14.52
					c-4.76,4.58-10.04,8.99-16.6,12.38c-3.29,1.68-6.93,3.08-10.96,3.77c-0.99,0.18-2,0.3-3.02,0.38c-3.16,0.22-6.44-0.03-9.56-0.9
					c-2.06-0.55-4.02-1.35-5.85-2.29c-2.04-1.05-3.56-2.13-5.17-3.43c-3.19-2.55-5.97-5.99-7.77-9.83
					c-1.81-3.83-2.66-7.89-2.84-11.71c-0.2-3.85,0.2-7.47,0.86-10.9c1.39-6.86,3.81-13.02,6.55-18.85
					c2.79-5.8,5.96-11.27,9.32-16.55c1.71-2.63,3.44-5.21,5.24-7.74c0.9-1.27,1.8-2.53,2.7-3.78l2.65-3.64
					c7.22-9.92,14.87-19.46,22.87-28.63c16.02-18.37,33.46-35.33,51.94-50.88c9.24-7.78,18.75-15.2,28.5-22.27
					c4.21-3.03,8.45-6.01,12.74-8.92c-0.14,0.46-0.27,0.94-0.43,1.37c-3.04,2.09-6.1,4.22-9.13,6.4
					c-16.04,11.54-31.73,24.44-46.94,38.96c11.87-11.14,23.39-20.55,34.65-28.84c6.99-5.15,13.87-9.86,20.72-14.28
					c-0.07,0.25-0.15,0.5-0.23,0.75c-16.91,11.59-33.09,24.24-48.5,37.93l-13.64,13.27c-3.46,3.37-6.84,6.77-10.2,10.24
					c-9.81,9.56-18.9,19.13-27.65,29.54c-2.76,3.35-5.45,6.72-8.1,10.15c-1.32,1.7-2.62,3.42-3.93,5.15l-3.79,5.15
					c-5.15,6.96-10.02,14.17-14.24,21.88c-2.12,3.85-4.06,7.83-5.75,11.99c-1.66,4.2-3.08,8.55-3.94,13.24
					c-0.81,4.68-1.08,9.76,0.14,14.99c0.61,2.6,1.63,5.2,3.04,7.61c1.43,2.39,3.24,4.55,5.28,6.36c1.01,0.9,2.07,1.73,3.16,2.46
					c0.54,0.35,1.14,0.76,1.78,1.11c0.65,0.37,1.22,0.65,1.83,0.96c2.48,1.18,5.21,2.02,7.99,2.42c1.93,0.26,3.87,0.3,5.77,0.17
					c0.86-0.07,1.72-0.17,2.55-0.3c2.69-0.42,5.22-1.18,7.59-2.14c4.75-1.91,8.83-4.54,12.56-7.37c3.72-2.84,7.08-5.94,10.24-9.14
					c6.29-6.43,11.81-13.32,17.01-20.31c2.6-3.5,5.13-7.04,7.59-10.54l3.66-5.2c0.61-0.84,1.19-1.67,1.77-2.46
					c0.1-0.12,0.45-0.57,0.67-0.92l0.47-0.71l0.92-1.37L154.66,322.78z M184.01,270.81c-8.65,17.99-18.21,35.45-28.99,52.19
					c3.38-6.11,8.16-15.79,12.36-23.6c10.35-18.72,20.07-38.88,28.38-59.23c7.21-17.66,13.33-35.46,17.95-52.46l1.17-0.79
					C206.9,216.49,195.95,245.73,184.01,270.81z M218.39,173.13c-0.27,0.17-0.52,0.34-0.78,0.53l-2.98,2.05l-0.06,0.03
					c0.1-0.44,0.2-0.88,0.31-1.33l3.83-2.62C218.6,172.24,218.5,172.69,218.39,173.13z M229.24,236.41l-0.11,0.11l0.18,0.22
					l0.13-0.07L229.24,236.41z M150.11,334.65c2.1-3.01,4.16-6.06,6.09-8.76l0.36-0.49c0.12-0.17,0.27-0.35,0.37-0.53l0.31-0.47
					l0.78-1.18l1.54-2.36c1.02-1.58,2.03-3.17,3.04-4.77c1.98-3.2,3.94-6.42,5.87-9.68c3.85-6.53,7.54-13.21,11.09-20.01
					c9.87-19.73,18.48-39.93,26.06-59.55c-3.8,8.78-8.3,19.13-13.16,29.56c-4.83,10.44-10.02,20.97-14.9,30.25
					c-3.38,6.56-6.89,13.05-10.55,19.48c-1.84,3.21-3.7,6.41-5.61,9.58l-2.89,4.73l-1.47,2.36l-0.76,1.21
					c-0.13,0.18-0.22,0.35-0.35,0.51l-0.27,0.39l-0.35,0.51c-1.88,2.74-3.85,5.82-5.87,8.85c-2,3.05-4.07,6.12-6.22,9.16
					c-4.28,6.09-8.81,12.12-13.9,17.92c5.24-5.68,9.91-11.62,14.35-17.64C145.87,340.71,148.02,337.67,150.11,334.65z"/>
			</g>
		</g>
		<g>
			<g>
				<path class="st3" d="M578.55,281.31c0,15.49,12.56,28.06,28.06,28.06c15.49,0,28.04-12.57,28.04-28.06
					c0-15.49-12.55-28.05-28.04-28.05C591.11,253.26,578.55,265.82,578.55,281.31"/>
				<path d="M606.61,281.31c6.38-1.98,12.75-3.96,12.75-12.75c0-7.05-5.71-12.76-12.75-12.76c14.08,0,25.5,11.43,25.5,25.51
					c0,14.08-11.42,25.51-25.5,25.51c-7.05,0-12.76-5.71-12.76-12.75C593.85,285.28,600.22,283.29,606.61,281.31"/>
				<path class="st3" d="M606.61,281.31c-6.39,1.98-12.76,3.97-12.76,12.76c0,7.03,5.71,12.75,12.76,12.75
					c-14.09,0-25.51-11.43-25.51-25.51c0-14.07,11.42-25.51,25.51-25.51c7.04,0,12.75,5.71,12.75,12.76
					C619.35,277.35,612.99,279.32,606.61,281.31"/>
				<path class="st3" d="M610.55,296.02c0,2.64-2.12,4.78-4.76,4.78c-2.63,0-4.78-2.14-4.78-4.78c0-2.63,2.14-4.76,4.78-4.76
					C608.43,291.27,610.55,293.39,610.55,296.02"/>
				<path d="M610.55,267.74c0,2.64-2.12,4.76-4.76,4.76c-2.63,0-4.78-2.12-4.78-4.76c0-2.64,2.14-4.76,4.78-4.76
					C608.43,262.97,610.55,265.1,610.55,267.74"/>
			</g>
			<path class="st3" d="M237.34,283.92c4.27-1.42,6.85-4.63,6.85-8.87c0-2.46-0.93-4.76-2.56-6.38c-2.06-2.06-5.24-3.21-8.93-3.21
				h-11.58h-1.65v1.66v27.57v1.65h1.65h2.05h1.65v-1.65v-9.78h6.55l8.29,10.78l0.5,0.65h0.81h2.61h3.36l-2.06-2.66L237.34,283.92z
				 M232.47,279.76h-7.65v-9.1h7.76c2.07,0,3.73,0.44,4.82,1.29c0.96,0.73,1.44,1.78,1.44,3.1
				C238.85,278.54,235.41,279.76,232.47,279.76z"/>
			<polygon class="st3" points="261.17,291.15 261.17,283.38 275.3,283.38 276.94,283.38 276.94,281.73 276.94,279.83 
				276.94,278.18 275.3,278.18 261.17,278.18 261.17,270.66 277.06,270.66 278.72,270.66 278.72,269.01 278.72,267.12 
				278.72,265.46 277.06,265.46 257.47,265.46 255.81,265.46 255.81,267.12 255.81,294.69 255.81,296.34 257.47,296.34 
				277.28,296.34 278.93,296.34 278.93,294.69 278.93,292.8 278.93,291.15 277.28,291.15 			"/>
			<path class="st3" d="M301.46,278.25c-6.71-1.37-6.71-2.98-6.71-4.4c0-2.13,2.14-3.62,5.09-3.62c2.76,0,4.97,0.83,7.14,2.71
				l1.29,1.12l1.08-1.32l1.31-1.62l1.03-1.3l-1.29-1.04c-3.28-2.63-6.32-3.72-10.5-3.72c-2.85,0-5.47,0.89-7.39,2.47
				c-2.02,1.66-3.11,3.95-3.11,6.44c0,6.46,5.38,8.4,10.62,9.46c6.47,1.31,6.47,2.88,6.47,4.26c0,2.33-2.19,3.9-5.32,3.9
				c-3.45,0-5.91-1.03-8.77-3.67l-1.25-1.14l-1.11,1.27l-1.34,1.53l-0.05,0.05l-1.03,1.17v0.01v0.02l1.22,1.07l0.01,0.02
				c0,0,0,0,0.01,0l1.25,1.1l0.02-0.04c3.34,2.59,6.77,3.77,10.93,3.77c6.25,0,10.78-3.86,10.78-9.17
				C311.83,281.17,306.29,279.24,301.46,278.25z"/>
			<polygon class="st3" points="325.06,265.46 323.41,265.46 323.41,267.12 323.41,294.69 323.41,296.34 325.06,296.34 
				327.11,296.34 328.77,296.34 328.77,294.69 328.77,267.12 328.77,265.46 327.11,265.46 			"/>
			<path class="st3" d="M352.63,265.46h-9.18h-1.65v1.66v27.57v1.65h1.65h9.18c9.29,0,16.3-6.63,16.3-15.43
				C368.93,271.92,362.08,265.46,352.63,265.46z M352.63,291.15h-5.48v-20.49h5.48c3.23,0,5.98,1.05,7.98,3.02
				c1.87,1.85,2.89,4.42,2.89,7.23C363.5,286.97,359.03,291.15,352.63,291.15z"/>
			<polygon class="st3" points="385.81,291.15 385.81,283.38 399.95,283.38 401.59,283.38 401.59,281.73 401.59,279.83 
				401.59,278.18 399.95,278.18 385.81,278.18 385.81,270.66 401.72,270.66 403.38,270.66 403.38,269.01 403.38,267.12 
				403.38,265.46 401.72,265.46 382.11,265.46 380.46,265.46 380.46,267.12 380.46,294.69 380.46,296.34 382.11,296.34 
				401.92,296.34 403.57,296.34 403.57,294.69 403.57,292.8 403.57,291.15 401.92,291.15 			"/>
			<polygon class="st3" points="437.31,265.46 435.65,265.46 435.65,267.12 435.65,286.36 419.59,266.09 419.09,265.46 
				418.29,265.46 416.7,265.46 416.68,265.44 416.68,265.46 416.37,265.46 414.72,265.46 414.72,267.12 414.72,294.69 
				414.72,296.34 416.37,296.34 418.33,296.34 419.98,296.34 419.98,294.69 419.98,274.93 436.44,295.71 436.95,296.34 
				437.75,296.34 439.28,296.34 440.93,296.34 440.93,294.69 440.93,267.12 440.93,265.46 439.28,265.46 			"/>
			<path class="st3" d="M478.54,287.83l-1.15-1.12l-1.16,1.13c-2.77,2.74-5.11,3.8-8.32,3.8c-5.62,0-10.02-4.71-10.02-10.73
				c0-6.18,4.29-10.77,9.96-10.77c3.15,0,5.5,1.04,8.18,3.6l1.18,1.14l1.13-1.18l1.45-1.49l1.18-1.22l-1.25-1.15
				c-2.74-2.51-6.07-4.84-11.83-4.84c-8.14,0-14.62,6.18-15.36,14.33h-0.08v1.58v0.07v1.65h0.08c0.78,8.07,7.21,14.17,15.28,14.17
				c5.94,0,9.45-2.67,12.1-5.27l1.22-1.18l-1.22-1.18L478.54,287.83z"/>
			<polygon class="st3" points="495.98,291.15 495.98,283.38 510.12,283.38 511.78,283.38 511.78,281.73 511.78,279.83 
				511.78,278.18 510.12,278.18 495.98,278.18 495.98,270.66 511.88,270.66 513.55,270.66 513.55,269.01 513.55,267.12 
				513.55,265.46 511.88,265.46 492.28,265.46 490.62,265.46 490.62,267.12 490.62,294.69 490.62,296.34 492.28,296.34 
				512.08,296.34 513.73,296.34 513.73,294.69 513.73,292.8 513.73,291.15 512.08,291.15 			"/>
			<polygon class="st3" points="565.9,265.46 564.25,265.46 564.25,267.12 564.25,278.22 549.92,278.22 549.92,267.12 
				549.92,265.46 548.27,265.46 546.21,265.46 544.55,265.46 544.55,267.12 544.55,294.69 544.55,296.34 546.21,296.34 
				548.27,296.34 549.92,296.34 549.92,294.69 549.92,283.42 564.25,283.42 564.25,294.69 564.25,296.34 565.9,296.34 
				567.96,296.34 569.61,296.34 569.61,294.69 569.61,267.12 569.61,265.46 567.96,265.46 			"/>
			<polygon class="st3" points="643.83,265.46 642.18,265.46 642.18,267.12 642.18,269.01 642.18,270.66 643.83,270.66 
				651.79,270.66 651.79,294.69 651.79,296.34 653.44,296.34 655.47,296.34 657.12,296.34 657.12,294.69 657.12,270.66 
				665.09,270.66 666.74,270.66 666.74,269.01 666.74,267.12 666.74,265.46 665.09,265.46 			"/>
			<polygon class="st3" points="682.89,291.15 682.89,283.38 697.02,283.38 698.68,283.38 698.68,281.73 698.68,279.83 
				698.68,278.18 697.02,278.18 682.89,278.18 682.89,270.66 698.79,270.66 700.45,270.66 700.45,269.01 700.45,267.12 
				700.45,265.46 698.79,265.46 679.18,265.46 677.53,265.46 677.53,267.12 677.53,294.69 677.53,296.34 679.18,296.34 
				698.99,296.34 700.64,296.34 700.64,294.69 700.64,292.8 700.64,291.15 698.99,291.15 			"/>
			<polygon class="st3" points="731.68,291.15 717.15,291.15 717.15,267.12 717.15,265.46 715.5,265.46 713.43,265.46 
				711.79,265.46 711.79,267.12 711.79,294.69 711.79,296.34 713.43,296.34 731.68,296.34 733.32,296.34 733.32,294.69 
				733.32,292.8 733.32,291.15 			"/>
		</g>
	</g>
</g>
<g id="Black_on_White">
	<rect class="st4" width="792" height="445.48"/>
	<g>
		<g id="Tagline">
			<path d="M219.47,333.7h9.04c5.47,0,9.25,2.81,9.25,7.61v0.09c0,5.22-4.52,7.92-9.72,7.92h-6.72v9.29h-1.86V333.7z M228.15,347.61
				c4.63,0,7.75-2.42,7.75-6.11v-0.07c0-3.95-3.05-6.02-7.54-6.02h-7.04v12.2H228.15z"/>
			<path d="M241.47,349.58v-0.08c0-5.26,3.7-9.46,8.61-9.46c5.09,0,8.33,4.13,8.33,9.5c0,0.33,0,0.44-0.03,0.72h-15.06
				c0.32,4.52,3.56,7.15,7.12,7.15c2.81,0,4.73-1.24,6.22-2.84l1.22,1.05c-1.86,1.99-4.02,3.42-7.51,3.42
				C245.6,359.03,241.47,355.23,241.47,349.58 M256.52,348.68c-0.26-3.67-2.35-7.04-6.52-7.04c-3.58,0-6.37,3.02-6.69,7.04H256.52z"
				/>
			<path d="M263.51,340.47h1.74v5.15c1.43-3.24,4.46-5.59,8.04-5.44v1.91h-0.17c-4.2,0-7.87,3.17-7.87,9.07v7.45h-1.74V340.47z"/>
			<path d="M278.81,342.06h-2.63v-1.59h2.63v-1.79c0-2.06,0.57-3.7,1.6-4.73c0.93-0.93,2.21-1.42,3.82-1.42
				c1.1,0,1.88,0.14,2.69,0.43v1.64c-1.03-0.31-1.77-0.46-2.69-0.46c-2.51,0-3.67,1.49-3.67,4.59v1.76h6.32v1.59h-6.32v16.55h-1.75
				V342.06z"/>
			<path d="M289.03,349.58v-0.08c0-5.26,3.7-9.46,8.61-9.46c5.09,0,8.33,4.13,8.33,9.5c0,0.33,0,0.44-0.03,0.72h-15.05
				c0.32,4.52,3.55,7.15,7.11,7.15c2.81,0,4.73-1.24,6.23-2.84l1.21,1.05c-1.85,1.99-4.02,3.42-7.51,3.42
				C293.16,359.03,289.03,355.23,289.03,349.58 M304.08,348.68c-0.25-3.67-2.35-7.04-6.51-7.04c-3.59,0-6.37,3.02-6.69,7.04H304.08z
				"/>
			<path d="M309.82,349.61v-0.08c0-5.08,4.06-9.5,9.26-9.5c3.41,0,5.55,1.57,7.25,3.35l-1.25,1.27c-1.56-1.6-3.34-2.99-6.05-2.99
				c-4.13,0-7.33,3.45-7.33,7.79v0.07c0,4.38,3.32,7.87,7.48,7.87c2.56,0,4.55-1.31,6.09-3.02l1.2,1.08
				c-1.86,2.09-4.05,3.58-7.4,3.58C313.84,359.03,309.82,354.69,309.82,349.61"/>
			<path d="M332.37,353.95v-11.88h-2.65v-1.59h2.65v-5.81h1.74v5.81h6.37v1.59h-6.37v11.7c0,2.6,1.53,3.53,3.62,3.53
				c0.9,0,1.64-0.19,2.68-0.64v1.64c-0.93,0.43-1.81,0.63-2.95,0.63C334.64,358.93,332.37,357.39,332.37,353.95"/>
			<path d="M356.31,332.63h1.75v11.2c1.2-2.13,3.23-3.81,6.54-3.81c4.6,0,7.26,3.13,7.26,7.48v11.1h-1.75v-10.79
				c0-3.73-2.09-6.19-5.76-6.19c-3.56,0-6.29,2.7-6.29,6.47v10.51h-1.75V332.63z"/>
			<path d="M376.64,353.35v-0.07c0-3.78,3.24-5.91,7.94-5.91c2.53,0,4.27,0.32,6.02,0.78v-0.78c0-3.66-2.24-5.55-5.97-5.55
				c-2.21,0-4.02,0.61-5.7,1.46l-0.64-1.54c2-0.92,3.95-1.56,6.43-1.56c2.46,0,4.42,0.68,5.74,1.98c1.21,1.22,1.85,2.89,1.85,5.13
				v11.32h-1.71v-3.03c-1.25,1.75-3.49,3.45-6.94,3.45C380.28,359.03,376.64,357.11,376.64,353.35 M390.62,351.81v-2.05
				c-1.52-0.4-3.55-0.84-6.15-0.84c-3.84,0-5.97,1.72-5.97,4.25v0.07c0,2.63,2.49,4.16,5.27,4.16
				C387.47,357.39,390.62,355.12,390.62,351.81"/>
			<path d="M398.57,340.47h1.75v5.15c1.42-3.24,4.44-5.59,8.03-5.44v1.91h-0.18c-4.19,0-7.85,3.17-7.85,9.07v7.45h-1.75V340.47z"/>
			<path d="M412.81,340.47h1.75v3.23c1.17-1.89,2.8-3.67,6.05-3.67c3.17,0,5.12,1.82,6.11,3.91c1.17-2.03,3.14-3.91,6.55-3.91
				c4.31,0,6.97,3.02,6.97,7.58v11h-1.75v-10.79c0-3.9-2.03-6.19-5.37-6.19c-3.07,0-5.73,2.34-5.73,6.4v10.58h-1.75v-10.88
				c0-3.78-2.06-6.09-5.29-6.09c-3.24,0-5.8,2.85-5.8,6.51v10.47h-1.75V340.47z"/>
			<path d="M445.42,349.61v-0.08c0-5.08,3.95-9.5,9.35-9.5c5.37,0,9.28,4.35,9.28,9.43v0.07c0,5.1-3.94,9.5-9.35,9.5
				C449.34,359.03,445.42,354.69,445.42,349.61 M462.18,349.61v-0.08c0-4.37-3.27-7.86-7.48-7.86c-4.3,0-7.4,3.53-7.4,7.79v0.07
				c0,4.38,3.27,7.87,7.48,7.87C459.09,357.39,462.18,353.88,462.18,349.61"/>
			<path d="M469.44,340.47h1.75v3.37c1.2-2.13,3.23-3.81,6.54-3.81c4.6,0,7.26,3.13,7.26,7.48v11.1h-1.74v-10.79
				c0-3.73-2.1-6.19-5.77-6.19c-3.55,0-6.29,2.7-6.29,6.47v10.51h-1.75V340.47z"/>
			<path d="M489.35,363.63l0.61-1.53c0.96,0.46,1.74,0.67,3.09,0.67c1.89,0,3.13-1.1,4.49-4.27l-8.72-18.03h2.03l7.54,16.22
				l6.55-16.22h1.93L499,359.25c-1.61,3.81-3.46,5.16-6.06,5.16C491.56,364.4,490.56,364.16,489.35,363.63"/>
			<rect x="508.29" y="355.58" width="2.35" height="3.03"/>
			<path d="M527.94,333.7h9.03c5.48,0,9.26,2.81,9.26,7.61v0.09c0,5.22-4.52,7.92-9.72,7.92h-6.72v9.29h-1.86V333.7z M536.62,347.61
				c4.63,0,7.75-2.42,7.75-6.11v-0.07c0-3.95-3.05-6.02-7.53-6.02h-7.05v12.2H536.62z"/>
			<path d="M549.94,349.58v-0.08c0-5.26,3.7-9.46,8.62-9.46c5.09,0,8.32,4.13,8.32,9.5c0,0.33,0,0.44-0.04,0.72h-15.05
				c0.32,4.52,3.56,7.15,7.12,7.15c2.8,0,4.74-1.24,6.23-2.84l1.21,1.05c-1.86,1.99-4.02,3.42-7.51,3.42
				C554.07,359.03,549.94,355.23,549.94,349.58 M564.99,348.68c-0.25-3.67-2.35-7.04-6.52-7.04c-3.58,0-6.37,3.02-6.69,7.04H564.99z
				"/>
			<path d="M571.98,340.47h1.75v5.15c1.42-3.24,4.45-5.59,8.03-5.44v1.91h-0.17c-4.2,0-7.86,3.17-7.86,9.07v7.45h-1.75V340.47z"/>
			<path d="M587.28,342.06h-2.63v-1.59h2.63v-1.79c0-2.06,0.58-3.7,1.6-4.73c0.93-0.93,2.2-1.42,3.82-1.42
				c1.1,0,1.88,0.14,2.69,0.43v1.64c-1.02-0.31-1.77-0.46-2.69-0.46c-2.5,0-3.67,1.49-3.67,4.59v1.76h6.33v1.59h-6.33v16.55h-1.75
				V342.06z"/>
			<path d="M597.5,349.58v-0.08c0-5.26,3.71-9.46,8.61-9.46c5.09,0,8.33,4.13,8.33,9.5c0,0.33,0,0.44-0.03,0.72h-15.05
				c0.32,4.52,3.55,7.15,7.11,7.15c2.82,0,4.72-1.24,6.23-2.84l1.21,1.05c-1.85,1.99-4.02,3.42-7.51,3.42
				C601.63,359.03,597.5,355.23,597.5,349.58 M612.56,348.68c-0.26-3.67-2.36-7.04-6.52-7.04c-3.59,0-6.37,3.02-6.69,7.04H612.56z"
				/>
			<path d="M618.29,349.61v-0.08c0-5.08,4.06-9.5,9.26-9.5c3.41,0,5.55,1.57,7.25,3.35l-1.25,1.27c-1.56-1.6-3.34-2.99-6.05-2.99
				c-4.12,0-7.33,3.45-7.33,7.79v0.07c0,4.38,3.32,7.87,7.47,7.87c2.57,0,4.57-1.31,6.09-3.02l1.2,1.08
				c-1.84,2.09-4.05,3.58-7.39,3.58C622.31,359.03,618.29,354.69,618.29,349.61"/>
			<path d="M640.83,353.95v-11.88h-2.62v-1.59h2.62v-5.81h1.75v5.81h6.36v1.59h-6.36v11.7c0,2.6,1.52,3.53,3.63,3.53
				c0.9,0,1.64-0.19,2.67-0.64v1.64c-0.93,0.43-1.81,0.63-2.95,0.63C643.1,358.93,640.83,357.39,640.83,353.95"/>
			<path d="M663.21,356.33l1.04-1.38c1.99,1.53,4.2,2.38,6.52,2.38c2.45,0,4.37-1.35,4.37-3.46v-0.08c0-2.12-2.28-2.91-4.8-3.63
				c-2.95-0.85-6.23-1.74-6.23-4.97v-0.07c0-2.92,2.46-5.01,5.97-5.01c2.18,0,4.63,0.78,6.44,1.98l-0.92,1.46
				c-1.67-1.1-3.66-1.81-5.59-1.81c-2.5,0-4.13,1.35-4.13,3.16v0.08c0,2.02,2.45,2.77,5.04,3.52c2.92,0.82,5.98,1.89,5.98,5.09v0.07
				c0,3.24-2.77,5.31-6.26,5.31C668.02,358.97,665.14,357.89,663.21,356.33"/>
			<path d="M683.08,353.95v-11.88h-2.63v-1.59h2.63v-5.81h1.74v5.81h6.38v1.59h-6.38v11.7c0,2.6,1.55,3.53,3.64,3.53
				c0.88,0,1.63-0.19,2.67-0.64v1.64c-0.93,0.43-1.81,0.63-2.96,0.63C685.36,358.93,683.08,357.39,683.08,353.95"/>
			<path d="M694.87,353.35v-0.07c0-3.78,3.23-5.91,7.94-5.91c2.53,0,4.27,0.32,6,0.78v-0.78c0-3.66-2.23-5.55-5.97-5.55
				c-2.2,0-4.02,0.61-5.7,1.46l-0.64-1.54c2-0.92,3.95-1.56,6.44-1.56c2.45,0,4.42,0.68,5.73,1.98c1.22,1.22,1.85,2.89,1.85,5.13
				v11.32h-1.71v-3.03c-1.24,1.75-3.48,3.45-6.93,3.45C698.5,359.03,694.87,357.11,694.87,353.35 M708.85,351.81v-2.05
				c-1.53-0.4-3.56-0.84-6.16-0.84c-3.84,0-5.97,1.72-5.97,4.25v0.07c0,2.63,2.5,4.16,5.27,4.16
				C705.68,357.39,708.85,355.12,708.85,351.81"/>
			<path d="M714.73,363.63l0.61-1.53c0.96,0.46,1.75,0.67,3.09,0.67c1.9,0,3.13-1.1,4.49-4.27l-8.72-18.03h2.04l7.54,16.22
				l6.54-16.22h1.93l-7.87,18.78c-1.6,3.81-3.45,5.16-6.05,5.16C716.94,364.4,715.95,364.16,714.73,363.63"/>
			<rect x="733.64" y="355.58" width="2.35" height="3.03"/>
		</g>
		<g>
			<g>
				<path d="M231.81,238.31l0.43,0.52c0.89-0.87,1.81-1.71,2.75-2.52C233.94,236.99,232.87,237.66,231.81,238.31z M231.67,239.38
					l0.78,0.96c0.18-0.18,0.37-0.37,0.55-0.56l-0.77-0.94C232.03,239.01,231.84,239.2,231.67,239.38z M226.92,233.58l0.79,0.97
					c0.23-0.13,0.47-0.28,0.68-0.41l-0.81-0.98C227.36,233.3,227.15,233.44,226.92,233.58z M474.78,171.64
					c-0.34,0.03-0.79,0.06-1.33,0.14c-7.01,0.92-14.16,1.99-21.38,3.12c-19.39,3.62-39.49,7.23-59.64,11.43
					c-20.14,4.19-40.33,8.97-59.81,14.83c-14.11,3.8-29.26,8.92-44.2,14.58c-0.81,0.28-1.71,0.59-2.73,0.96l-1.58,0.57l-1.76,0.58
					l-7.16,2.39c-4.83,1.6-9.42,3.13-12.08,3.69c5.42-2.22,11.04-4.21,16.77-6.2l2.15-0.74c0.68-0.23,1.55-0.53,2.24-0.78l4.3-1.57
					c2.84-1.03,5.67-2.02,8.52-3.02c11.38-3.96,22.86-7.62,34.4-11.05c23.08-6.87,46.4-12.78,69.81-18.1
					c-2.66,0.3-4.92,0.35-8.54,1.38l1.64-1.18l-9.59,2.01c3.21-1.1,10.82-2.91,16.52-4.2c4.59-1.05,7.92-1.81,6.84-1.72
					c-0.27,0.01-0.82,0.08-1.69,0.21c-21.28,3.74-42.54,8.66-63.85,14.7c-3.64,0.85-7.32,1.71-10.96,2.62l5.1-0.94
					c-3.81,1.12-7.67,2.29-11.49,3.47c-3.91,1.06-7.82,2.15-11.71,3.27c0.25-0.05,0.48-0.11,0.73-0.16
					c-1.24,0.35-2.46,0.67-3.71,1.01c-3.42,1.01-6.87,2.04-10.3,3.09c-4.15,1.27-8.29,2.59-12.43,3.95l-6.22,2.06l-6.25,1.95
					c-5.99,1.93-11.96,3.92-17.77,6.28c-0.98,0.78-1.98,1.54-2.99,2.3c-2.45,1.85-4.94,3.66-7.44,5.46
					c0.59-0.32,1.18-0.64,1.78-0.95c6.41-3.35,13.24-6.01,20.22-8.45c-6.82,2.61-13.49,5.46-19.74,8.97
					c-6.03,3.35-11.65,7.34-16.43,12.2l4.01,4.93c5.81-5.8,13.16-10.2,21.27-13.81c4.07-1.82,8.32-3.45,12.7-5
					c4.4-1.54,8.87-3,13.55-4.53l7.02-2.41l6.79-2.3c4.55-1.53,9.13-3.01,13.76-4.49c9.22-2.91,18.58-5.75,28.14-8.55
					c35.22-10.45,70.34-18.31,109.7-25.69C463.46,175.53,480.06,171.26,474.78,171.64z M228.16,235.34l0.12-0.12l-0.57-0.67
					l-0.13,0.09L228.16,235.34z M64.97,177.12c1.08,3.33,2.36,6.42,3.73,8.85c1.37,2.44,2.78,4.2,3.8,4.94
					c1.98,2.69,4.34,5.12,7.04,7.11c0.74,0.56,1.46,1.03,2.05,1.4c0.6,0.36,1.21,0.73,1.81,1.1c1.24,0.7,2.51,1.35,3.78,1.97
					c5.11,2.44,10.59,4.01,16.16,4.62c3.14,0.34,6.27,0.39,9.41,0.17c2.46-0.19,4.9-0.53,7.32-1.01c5.54-1.12,10.95-2.98,16.3-5.48
					c9.8-4.66,18.29-10.84,26.04-17.55c7.75-6.76,14.77-14.11,21.33-21.76c3.27-3.84,6.44-7.76,9.52-11.76l2.27-2.99l1.14-1.53
					l0.58-0.76l0.19-0.26l0.16-0.23c0.81-1.14,1.63-2.33,2.45-3.54c3.31-4.86,6.76-10.24,9.95-15.71c1.23-2.1,2.41-4.23,3.49-6.31
					l0.81-1.56l0.17-0.39l0.02-0.05v0.41l-0.02,0.93c-0.04,1.25-0.1,2.53-0.17,3.8c-0.33,5.1-0.99,10.33-1.91,15.26
					c-0.28,1.47-0.34,3.57-0.51,6.05c-0.15,2.42-0.39,5.26-0.64,7.15l-0.75,3.61l-0.85,3.82c-0.55,2.54-1.17,5.07-1.81,7.59
					c-0.78,3.08-1.59,6.14-2.45,9.18c0.79-0.52,1.58-1.05,2.37-1.57l2.13-1.4l2.1-1.48l4.46-3.09l0.13-0.09
					c0.42-2.1,0.81-4.15,1.17-6.18c0.43-2.45,0.81-4.86,1.18-7.19l0.63-4.13l0.62-4.3c0.77-5.6,1.31-10.85,1.75-15.97
					c0.43-5.12,0.74-10.11,0.99-15.38c0.25-5.3,0.49-10.97,0.59-17.48l0.06-5.08c-0.59,1.07-1.22,2.22-1.88,3.25
					c-1.33,2.07-2.78,4.02-4.28,5.08c-1.64,2.92-3.37,5.9-5.14,8.89c1.67-2.91,3.47-6.12,5.35-9.68c1.67-1.39,3.4-3.8,5.07-6.57
					c0.42-0.69,0.82-1.42,1.23-2.17c0.07-0.2,0.12-0.28,0.16-0.28c0.1,0,0.03,0.67,0.06,1l0.03,1.64c0.01,2.19,0.03,4.37,0.02,6.56
					c-0.01,4.38-0.09,8.78-0.2,13.22c-0.13,4.42-0.32,8.97-0.65,13.73c-0.34,4.77-0.81,9.73-1.44,14.76
					c-0.3,2.52-0.65,5.06-1.01,7.56l-1.01,6.64c-0.62,4.01-1.23,7.73-1.82,11.07l0.44-0.3c0.79-3.55,1.59-7.36,2.35-11.36l0.6-3.13
					l0.67-3.8c0.45-2.55,0.87-5.13,1.26-7.72c0.78-5.17,1.38-10.36,1.85-15.4c0.44-5.06,0.75-9.97,0.9-14.68
					c0.17-4.77,0.29-9.53,0.34-14.4c0.04-2.45,0.05-4.91,0.04-7.41l-0.03-3.8l-0.01-0.48v-0.34l-0.03,0.06l-0.24,0.35
					c-0.16,0.24-0.33,0.46-0.5,0.68c-0.68,0.84-1.4,1.53-2.14,1.97c-0.44,0.26-0.89,0.42-1.34,0.46c-0.32,0.02-0.63-0.03-0.97-0.16
					c-3.33,6.65-6.47,12.82-9.38,18.36c-1.47,2.77-2.87,5.41-4.21,7.9c-1.34,2.47-2.61,4.59-3.88,6.63
					c-2.52,4.07-4.96,7.75-7.41,11.26c-1.23,1.77-2.43,3.47-3.67,5.16l-1.83,2.47l-1.57,2.09c-7.58,9.97-15.37,18.77-22.62,25.76
					c-10.08,9.7-18.11,15.64-24.69,19.84c-6.61,4.15-11.79,6.62-16.91,8.52c-2.57,0.93-5.15,1.7-7.94,2.29
					c-1.93,0.4-3.96,0.71-6.17,0.87c-0.99,0.07-2.01,0.11-3.07,0.11c-3.42,0-7.28-0.42-11.6-1.73c-2.15-0.66-4.42-1.52-6.76-2.71
					c-1.16-0.59-2.38-1.25-3.55-1.99c-1.15-0.73-2.29-1.62-3.36-2.65c-0.93-0.91-2.2-2.22-3.51-4.06c-1.31-1.84-2.66-4.2-3.83-7.02
					c-2.34-5.63-3.81-13.04-4.16-20.88c-0.38-7.85,0.25-16.13,1.43-23.74c1.15-7.64,2.88-14.62,4.55-20.1
					c-3.05,9.12-5.09,17.89-6.24,26.17c-1.16,8.29-1.47,16.12-0.85,23.31c0.61,7.19,2.17,13.8,4.9,19.37
					c1.33,2.77,2.98,5.26,4.87,7.39c0.95,1.05,1.95,2.01,3.01,2.87c0.5,0.43,1.06,0.83,1.59,1.22c0.55,0.37,1.09,0.71,1.61,1.05
					c3.49,2.02,7.26,3.64,11.23,4.71c4.01,1.07,8.18,1.57,12.35,1.49c0.79-0.03,1.58-0.06,2.36-0.12
					c7.56-0.54,14.92-2.89,21.68-6.14c7.47-3.61,14.29-8.28,20.51-13.28c6.22-5.02,11.86-10.39,16.96-15.72
					c5.1-5.34,9.66-10.63,13.72-15.65c2.03-2.51,3.94-4.94,5.71-7.28l2.7-3.59c0.93-1.25,1.82-2.47,2.68-3.67
					c3.41-4.79,6.32-9.11,8.67-12.8c1.16-1.84,2.22-3.55,3.1-5.09l2.21-3.74c0.79-1.37,1.24-2.08,1.27-2.08
					c0.01,0-0.03,0.12-0.17,0.39c-0.41,0.85-1.66,3.22-3.73,6.85c-2.06,3.64-4.89,8.16-8.64,13.73c-1.89,2.76-4.03,5.81-6.39,9.02
					c-2.27,3.08-4.83,6.46-7.74,10.09c-5.89,7.24-13.12,15.64-22.69,24.41c-4.79,4.36-10.18,8.82-16.4,12.97
					c-6.23,4.14-13.33,8.05-21.62,10.56c-3.68,1.1-7.61,1.9-11.71,2.19c-0.5,0.04-1,0.07-1.51,0.1c-4.64,0.19-9.5-0.34-14.28-1.71
					c-2.4-0.7-4.77-1.59-7.07-2.69c-1.16-0.55-2.3-1.14-3.42-1.79c-0.57-0.32-1.1-0.64-1.69-1.01c-0.57-0.34-1.17-0.81-1.71-1.2
					c-2.21-1.68-4.14-3.72-5.79-6c-1.63-2.29-2.98-4.78-4.05-7.4c-2.14-5.25-3.28-10.88-3.83-16.63
					c-0.53-5.79-0.46-11.68,0.04-17.67c1.03-11.98,3.69-24.32,7.92-36.81c-0.91,2.37-4.05,10.78-6.53,22.61
					c-1.24,5.91-2.29,12.7-2.69,19.97c-0.36,7.25-0.13,15.05,1.72,22.76c0.94,3.85,2.3,7.68,4.26,11.23
					c1.96,3.55,4.59,6.82,7.72,9.31c0.77,0.61,1.67,1.28,2.46,1.74c0.75,0.49,1.54,0.96,2.3,1.4c1.55,0.88,3.13,1.67,4.7,2.36
					c3.12,1.38,6.27,2.36,9.25,2.99c5.45,1.15,10.26,1.15,13.85,0.9c0.33-0.02,0.65-0.05,0.96-0.07c3.69-0.33,5.96-0.84,6.51-0.88
					c0.21,0.01-0.3,0.19-1.48,0.48c-1.18,0.28-3.02,0.63-5.48,0.9c-0.57,0.06-1.15,0.12-1.79,0.17c-2.1,0.15-4.55,0.19-7.3-0.05
					c-3.56-0.28-7.6-1.02-11.81-2.5c-2.1-0.74-4.23-1.64-6.37-2.75c-1.06-0.54-2.12-1.14-3.18-1.78l-0.79-0.47
					c-0.27-0.19-0.55-0.35-0.84-0.56l-0.89-0.64c-0.27-0.2-0.55-0.41-0.83-0.64c-2.18-1.74-4.14-3.85-5.8-6.18
					c-1.66-2.32-3.04-4.87-4.13-7.52c-2.2-5.3-3.36-10.93-3.93-16.57c-0.54-5.67-0.49-11.35-0.07-16.96
					c0.9-11.21,3.27-22.11,6.27-32.02c3.02-9.91,6.71-18.86,10.54-26.23c3.81-7.39,7.78-13.16,10.96-16.92
					c2.95-3.47,5.12-5.23,5-5.23l-0.07,0.04c-0.99,0.69-3.06,2.35-5.5,4.96c-2.45,2.61-5.27,6.16-8.04,10.45
					c-5.6,8.55-11.12,20.06-15.23,32.34c-4.15,12.27-6.86,25.35-7.55,36.72c-0.38,5.67-0.25,10.92,0.23,15.32
					C63.5,171.34,64.31,174.88,64.97,177.12z M184.78,138.8l1.26-1.53c0.45-0.53,0.71-0.88,1.48-1.84
					c5.29-6.73,10.08-13.56,14.55-20.68c1.06-1.63,2.01-3.08,2.68-4.05c1.4-2.46,2.47-4.49,3.4-6.33l2.52-5.14
					c2.19-4.12,4.56-8.65,7.1-13.59c2.56-4.94,5.29-10.3,8.19-16.02c0.57,3.77,1.19,5.29,1.85,5.95c0.25,0.22,0.48,0.33,0.71,0.32
					l0.29-0.08l0.03-0.07c0.06-0.01,0.02,0.8,0.03,1.27l-0.03,1.83l-0.04,3.64c-0.09,4.82-0.19,9.56-0.32,14.3l-0.21,7.18
					c-0.11,2.42-0.17,4.84-0.3,7.38c-0.28,5.1-0.69,10.56-1.38,16.4c-0.64,5.81-1.51,12.02-2.62,18.39
					c-0.29,1.59-0.59,3.19-0.9,4.82l-0.71,3.78c-0.39,2.09-0.82,4.21-1.27,6.31c-0.19,0.95-0.41,1.9-0.61,2.83
					c0.92-0.61,1.85-1.23,2.76-1.82c0.63-2.76,1.22-5.51,1.78-8.27l0.45-2.27l0.52-2.67c0.33-1.77,0.67-3.55,0.96-5.29
					c0.61-3.54,1.16-7.02,1.63-10.45c0.96-6.82,1.63-13.38,2-19.44c0.2-3.04,0.34-5.97,0.43-8.76c0.07-2.8,0.09-5.49,0.14-8.19
					c0.06-5.4,0.1-10.72,0.12-16.18l-0.01-8.35l-0.01-2.13v-0.93l-0.02-0.02l-0.1-0.06c-0.14-0.14-0.29-0.31-0.44-0.6
					c-0.29-0.54-0.6-1.39-0.92-2.69c-0.32-1.33-0.65-3.1-1.02-5.77l-9.66,20.13l-8.36,17.28c-1.28,2.63-2.51,5.18-3.66,7.31
					c-1.16,2.17-2.26,4.15-3.36,6.02c-2.2,3.75-4.3,7.18-6.38,10.42c-2.11,3.1-4.21,6.07-6.37,8.98c-1.09,1.46-2.18,2.9-3.25,4.32
					l-1.47,1.87l-1,1.27c-2.67,3.36-5.42,6.67-8.23,9.89c1.75-1.81,3.5-3.73,5.23-5.69C183.09,140.81,183.94,139.81,184.78,138.8z
					 M231.01,238.82l0.55,0.68l0.11-0.12l-0.53-0.65L231.01,238.82z M230.04,237.64l0.13-0.08l-0.21-0.26l-0.12,0.1L230.04,237.64z
					 M228.39,234.14l0.44,0.55c0.99-0.94,1.99-1.85,3.03-2.71C230.7,232.73,229.56,233.44,228.39,234.14z M253.02,222.23
					c-0.67,0.31-1.33,0.61-1.99,0.92c-1.7,0.79-3.38,1.65-5.03,2.54c1.38-0.97,2.76-1.98,4.13-2.97c-0.19,0.09-0.38,0.19-0.56,0.26
					c-6.85,3.23-13.4,7.19-19.07,12.28c-0.23,0.2-0.47,0.41-0.68,0.62l0.31,0.38c1.03-0.62,2.06-1.26,3.06-1.9
					c-0.9,0.76-1.79,1.57-2.66,2.39l0.33,0.41c7.25-4.35,14.19-9.12,20.99-14.07C252.24,222.81,252.63,222.52,253.02,222.23z
					 M229.01,236.92l0.61,0.71l0.21-0.24l-0.52-0.65L229.01,236.92z M259.43,209.69c8.99-7.47,17.55-15.32,25.11-23.83
					c3.17-3.47,6.15-7.07,8.82-10.84c2.63-3.76,4.96-7.72,6.54-11.88c1.56-4.12,2.32-8.52,1.35-12.62c-0.22-1.03-0.58-2.03-1-2.98
					c-0.22-0.48-0.48-0.96-0.74-1.42c-0.13-0.23-0.28-0.46-0.42-0.67l-0.28-0.44l-0.2-0.31c-1.07-1.67-2.72-2.88-4.7-3.57
					c-2.01-0.68-4.22-0.86-6.48-0.78c-0.33,0.01-0.67,0.03-1.01,0.05c-1.92,0.14-3.86,0.46-5.8,0.89c-4.52,1-8.96,2.54-13.33,4.28
					c-8.7,3.57-17.11,7.97-25.36,12.71c-7.06,4.11-14.03,8.48-20.92,13.06c0.13-0.45,0.23-0.9,0.34-1.35
					c9.51-6.37,19.23-12.45,29.31-17.89c5.29-2.85,10.69-5.53,16.24-7.83c5.55-2.3,11.27-4.31,17.28-5.22
					c0.84-0.12,1.7-0.22,2.56-0.27c2.17-0.17,4.34-0.09,6.46,0.4c1.47,0.36,2.9,0.92,4.17,1.78c1.24,0.84,2.26,1.99,3.05,3.25
					c1.7,2.46,2.76,5.33,3.05,8.27c0.32,2.93-0.06,5.9-0.85,8.72c-1.59,5.7-4.59,10.88-7.99,15.71c-3.4,4.84-7.27,9.33-11.37,13.62
					c-8.19,8.57-17.21,16.36-26.55,23.71c-4.18,3.27-8.44,6.45-12.76,9.54c2.94-1.64,5.96-3.09,9-4.4c1.17-0.51,2.36-0.99,3.54-1.47
					c4.98-3.83,9.87-7.82,14.62-11.97c6.59-5.78,12.97-11.87,18.78-18.53c2.88-3.33,5.65-6.82,8.14-10.56
					c2.47-3.72,4.73-7.68,6.32-12.03c0.78-2.18,1.4-4.45,1.73-6.83c0.31-2.38,0.33-4.86-0.12-7.32c-0.44-2.44-1.34-4.86-2.67-6.99
					c-0.17-0.28-0.34-0.53-0.52-0.81l-0.45-0.67c-0.38-0.56-0.81-1.11-1.3-1.63c-0.95-1.01-2.08-1.88-3.28-2.54
					c-2.45-1.33-5.09-1.84-7.57-1.96c-1.22-0.07-2.4-0.05-3.58,0.04c-1.23,0.08-2.45,0.23-3.64,0.44
					c-4.64,0.78-9.02,2.18-13.26,3.78c-8.48,3.25-16.44,7.35-24.21,11.73c-7.75,4.39-15.29,9.12-22.69,14.05
					c-0.2,0.14-0.41,0.27-0.61,0.41c0.2-0.83,0.38-1.63,0.58-2.44c-0.91,0.6-1.8,1.21-2.71,1.83h-0.01
					c-0.19,0.8-0.37,1.61-0.56,2.42c-0.69,0.46-1.38,0.94-2.06,1.41c0.19-0.79,0.37-1.62,0.58-2.45l-0.32,0.21
					c-0.15,0.82-0.29,1.6-0.44,2.36c-0.54,0.37-1.08,0.75-1.63,1.13c0.18-0.83,0.35-1.63,0.52-2.42c-0.55,0.37-1.11,0.76-1.66,1.14
					l-2.74,1.91l-0.67,0.48l-0.33,0.22l-0.17,0.11l-1.43,0.93c-1.45,0.95-2.91,1.93-4.36,2.9c-0.23,0.84-0.49,1.67-0.73,2.51
					c-1.08,0.71-2.13,1.45-3.18,2.16c-7.35,5.04-14.55,10.27-21.63,15.7c-14.15,10.87-27.75,22.5-40.71,34.88
					c-12.95,12.37-25.27,25.47-36.78,39.34c-5.74,6.94-11.3,14.06-16.63,21.38l-3.9,5.41c-1.33,1.85-2.63,3.73-3.94,5.64
					c-2.57,3.82-5.06,7.75-7.38,11.83c-2.99,5.2-5.77,10.65-8.03,16.59c-0.15,1-0.12,1.59,0.15,1.66c-0.27-0.06-0.3-0.66-0.16-1.66
					c0.36-2.17,1.66-6.28,3.73-10.85c-2.86,5.74-5.45,11.79-7.24,18.67c-0.99,3.93-1.73,8.14-1.75,12.75
					c-0.01,2.3,0.17,4.69,0.63,7.14c0.45,2.45,1.19,4.96,2.3,7.4c1.08,2.42,2.52,4.76,4.22,6.83c1.7,2.06,3.64,3.89,5.66,5.4
					c0.51,0.38,1.02,0.76,1.55,1.1l0.78,0.51l0.87,0.54c1.28,0.74,2.37,1.28,3.59,1.81c2.42,1.02,5.04,1.78,7.74,2.17
					c2.28,0.35,4.59,0.4,6.83,0.26c0.41-0.05,0.8-0.08,1.19-0.12c2.6-0.27,5.1-0.86,7.4-1.61c4.64-1.54,8.6-3.74,12.16-6.12
					c3.54-2.4,6.7-5.04,9.61-7.77c2.92-2.72,5.61-5.55,8.16-8.44c-2.77,3-5.69,5.92-8.86,8.72c-3.16,2.79-6.59,5.46-10.47,7.86
					c-3.88,2.38-8.26,4.49-13.34,5.71c-1.57,0.36-3.22,0.65-4.88,0.78c1.59-0.15,3.17-0.44,4.66-0.81
					c4.22-1.05,7.95-2.75,11.28-4.68c3.33-1.94,6.27-4.13,9.01-6.4c5.46-4.58,10.06-9.56,14.3-14.64c4.2-5.1,8.02-10.31,11.63-15.58
					c3.59-5.25,6.96-10.58,10.18-15.6c0.54-0.85,1.12-1.71,1.69-2.55l0.33-0.48l0.35-0.56l0.47-0.76l0.95-1.52l4.07-6.46
					c2.81-4.5,5.75-9.3,8.62-14.15c5.73-9.7,11.08-19.62,14.59-27.32c7.06-15.05,13.65-30.53,19.61-46.32
					c5.11-13.54,9.75-27.31,13.75-41.25l1.54-1.01l2.61-1.86c3.19-2.27,6.41-4.48,9.61-6.65c6.41-4.3,12.86-8.4,19.34-12.19
					c6.5-3.75,13.02-7.22,19.53-10.04c3.23-1.4,6.46-2.65,9.61-3.58c2.85-0.86,5.67-1.47,8.04-1.65c0.23-0.02,0.46-0.02,0.68-0.03
					c1.23-0.07,2.29-0.01,3.02,0.14c0.73,0.14,1.02,0.34,1.12,0.43l0.18,0.2l0.54,0.8c0.1,0.13,0.25,0.36,0.34,0.54
					c0.45,0.77,0.75,1.54,0.93,2.4c0.38,1.69,0.29,3.85-0.36,6.33c-0.64,2.47-1.78,5.15-3.24,7.81
					c-2.94,5.38-7.02,10.68-11.53,15.79c-4.57,5.12-9.6,10.07-15,14.93c-6.53,5.88-13.28,11.34-20.1,16.48
					c-3.41,2.55-6.84,5.03-10.28,7.4c-3.42,2.36-6.93,4.67-10.26,6.68l4.02,4.93c1.17-0.74,2.36-1.51,3.52-2.3
					C240.97,224.28,250.44,217.14,259.43,209.69z M58.13,353.02c-0.02-2.44,0.2-4.79,0.53-7.03
					C58.33,348.23,58.12,350.58,58.13,353.02z M213.92,178.46c0.17-0.1,0.35-0.21,0.52-0.31c-0.17,0.12-0.35,0.22-0.52,0.34V178.46z
					 M211.02,189.54l0.41-0.28l1.74-1.2c-2.21,6.74-4.55,13.32-7.03,19.94c-3.46,9.25-7.15,18.56-11.11,28.42
					c-1.97,4.84-4.02,10.54-6.17,16.12c-2.14,5.6-4.39,11.08-6.63,15.49c-5.66,11.59-11.3,22.49-17.09,32.92
					c-2.89,5.22-5.82,10.31-8.82,15.3l-2.28,3.74l-1.17,1.88l-1.28,1.92c-1.51,2.27-3.04,4.68-4.59,7.05
					c-6.22,9.58-12.74,19.16-20.7,28.15c-4,4.48-8.37,8.84-13.52,12.76c-2.58,1.95-5.39,3.81-8.49,5.37
					c-3.1,1.55-6.56,2.84-10.35,3.5c-0.76,0.13-1.5,0.22-2.22,0.27c-2.18,0.16-4.17-0.04-6.07-0.41c-1.97-0.39-3.86-0.95-5.92-1.73
					c1.46,0.52,2.99,0.92,4.53,1.17c2.05,0.33,4.11,0.42,6.14,0.27c0.16-0.01,0.32-0.02,0.47-0.03c4.35-0.39,8.34-1.76,11.86-3.5
					c3.54-1.76,6.69-3.89,9.58-6.16c2.88-2.29,5.52-4.74,8.02-7.26c4.95-5.06,9.32-10.44,13.39-15.9
					c4.07-5.47,7.83-11.08,11.48-16.68c1.82-2.79,3.63-5.61,5.41-8.27l0.74-1.06l0.75-1.18l1.33-2.17l2.63-4.32
					c3.47-5.8,6.81-11.71,10.08-17.7c6.55-12.03,12.75-24.46,18.74-37.48c4.01-8.27,7.05-14.94,10.15-22.06
					c2.83-7.64,5.33-14.74,7.52-20.85C206.1,205.87,208.84,197.29,211.02,189.54z M121.28,272.42c-1.18,0.08,1.57-3.72,5.33-8.11
					c3.8-4.47,8.67-9.52,11.19-12.04c18.56-19.67,38.69-37.4,59.6-52.98c-1.24,3.54-2.51,7.07-3.83,10.57
					c-7.4,19.66-15.91,39.01-25.01,58.27c-5.7,11.8-12.31,23.45-19.37,34.73c-1.78,2.83-3.57,5.62-5.39,8.4l-1.38,2.07l-0.69,1.05
					c-0.13,0.19-0.16,0.22-0.23,0.32l-0.35,0.49c-1.05,1.44-2.02,2.84-2.97,4.23c-3.83,5.58-7.48,11.01-11.22,16.28
					c-4.38,6.29-9.04,12.32-14.15,17.75c-2.55,2.69-5.22,5.23-8.01,7.45c-2.77,2.22-5.7,4.13-8.66,5.43
					c-2.26,0.99-4.5,1.62-6.66,1.76c-0.66,0.04-1.31,0.04-1.94,0c-1.35-0.08-2.67-0.37-3.97-0.84c-0.65-0.25-1.31-0.55-1.9-0.87
					c-0.29-0.15-0.53-0.3-0.85-0.5c-0.32-0.21-0.62-0.41-0.92-0.63c-2.37-1.74-4-3.84-4.97-6.38c-0.97-2.55-1.25-5.62-0.97-8.88
					c0.27-3.26,1.08-6.69,2.21-10.11c1.12-3.41,2.57-6.83,4.22-10.21c3.29-6.75,7.33-13.32,11.73-19.71
					c1.1-1.62,2.23-3.19,3.39-4.78l3.52-4.88c2.33-3.2,4.7-6.35,7.12-9.48c4.87-6.26,9.92-12.4,15.17-18.43L121.28,272.42z
					 M81.21,308.42c-5.94,9.38-10.91,18.74-14,28.17c-1.53,4.71-2.58,9.47-2.75,14.2c-0.19,4.7,0.6,9.47,2.66,13.49
					c2.01,4.07,5.16,7.15,8.36,9.26c0.78,0.51,1.69,1.04,2.53,1.45c0.84,0.41,1.71,0.78,2.56,1.09c1.72,0.62,3.46,1,5.13,1.22
					c1.06,0.13,2.08,0.18,3.07,0.16c0.43-0.01,0.85-0.03,1.26-0.06c0.32-0.02,0.65-0.06,0.97-0.09c4.83-0.54,9.24-2.4,13.13-4.72
					c3.9-2.31,7.37-5.11,10.6-8.07c3.22-2.99,6.19-6.16,8.98-9.44c5.6-6.54,10.56-13.46,15.25-20.46c2.34-3.5,4.62-7.02,6.89-10.51
					l3.46-5.26c1.12-1.77,2.2-3.55,3.27-5.34c8.61-14.31,16.31-28.95,23.29-43.77c6.98-14.79,13.25-29.76,18.81-44.82
					c-7.28,22.42-19.63,51.88-37.3,82.19c-2.21,3.78-4.5,7.59-6.88,11.38l-7.48,11.26c-5.01,7.57-10.3,15.19-16.28,22.42
					c-2.99,3.64-6.15,7.16-9.57,10.49c-2.68,2.59-5.53,5.06-8.64,7.29h-0.02c0,0-0.2,0.14-0.61,0.4c-0.96,0.66-3.07,2.17-6.62,3.93
					c-1.78,0.84-3.93,1.74-6.54,2.4c-1.39,0.34-2.91,0.61-4.55,0.73c-0.48,0.03-0.95,0.05-1.44,0.06c-1.71,0.03-3.41-0.12-5.1-0.46
					c-2.43-0.49-4.69-1.37-6.88-2.56c1.25,0.69,2.54,1.29,3.87,1.77c-1.29-0.46-2.59-1.04-3.87-1.77c-0.85-0.48-1.61-0.97-2.38-1.53
					c-0.77-0.55-1.52-1.15-2.22-1.79c-1.42-1.25-2.7-2.71-3.8-4.32c-2.19-3.21-3.42-6.97-3.89-10.69
					c-0.48-3.72-0.26-7.41,0.34-10.94c0.59-3.55,1.55-6.96,2.72-10.28c2.3-6.63,5.42-12.87,8.85-18.89
					c3.43-6.03,7.26-11.8,11.28-17.42C84.61,302.97,82.22,306.65,81.21,308.42z M103.75,373.05c-1.73,0.99-3.56,1.88-5.48,2.6
					C100.55,374.77,102.33,373.84,103.75,373.05z M94.89,376.73c-0.73,0.18-1.53,0.35-2.37,0.48c-0.17,0.03-0.36,0.06-0.54,0.09
					c-0.59,0.1-1.18,0.16-1.77,0.2c-0.09,0-0.18,0-0.27,0.01c0.08,0,0.18-0.01,0.26-0.01c0.8-0.07,1.58-0.16,2.32-0.29
					C93.33,377.08,94.12,376.92,94.89,376.73z M84.6,377.22c-0.16-0.03-0.31-0.04-0.47-0.07c-0.22-0.04-0.44-0.1-0.66-0.15
					C83.85,377.08,84.23,377.16,84.6,377.22z M80.33,383.32c-0.52-0.16-1.03-0.34-1.54-0.52c0.51,0.18,1.02,0.36,1.55,0.52
					c1,0.29,2.03,0.52,3.07,0.71C82.37,383.84,81.33,383.61,80.33,383.32z M154.66,322.78c-0.12,0.21-0.32,0.52-0.51,0.77
					l-0.32,0.48l-0.63,0.86l-2.52,3.72l-5.18,7.66c-3.53,5.16-7.22,10.29-11.18,15.3c-3.95,5-8.18,9.9-12.95,14.52
					c-4.76,4.58-10.04,8.99-16.6,12.38c-3.29,1.68-6.93,3.08-10.96,3.77c-0.99,0.18-2,0.3-3.02,0.38c-3.16,0.22-6.44-0.03-9.56-0.9
					c-2.06-0.55-4.02-1.35-5.85-2.29c-2.04-1.05-3.56-2.13-5.17-3.43c-3.19-2.55-5.97-5.99-7.77-9.83
					c-1.81-3.83-2.66-7.89-2.84-11.71c-0.2-3.85,0.2-7.47,0.86-10.9c1.39-6.86,3.81-13.02,6.55-18.85
					c2.79-5.8,5.96-11.27,9.32-16.55c1.71-2.63,3.44-5.21,5.24-7.74c0.9-1.27,1.8-2.53,2.7-3.78l2.65-3.64
					c7.22-9.92,14.87-19.46,22.87-28.63c16.02-18.37,33.46-35.33,51.94-50.88c9.24-7.78,18.75-15.2,28.5-22.27
					c4.21-3.03,8.45-6.01,12.74-8.92c-0.14,0.46-0.27,0.94-0.43,1.37c-3.04,2.09-6.1,4.22-9.13,6.4
					c-16.04,11.54-31.73,24.44-46.94,38.96c11.87-11.14,23.39-20.55,34.65-28.84c6.99-5.15,13.87-9.86,20.72-14.28
					c-0.07,0.25-0.15,0.5-0.23,0.75c-16.91,11.59-33.09,24.24-48.5,37.93l-13.64,13.27c-3.46,3.37-6.84,6.77-10.2,10.24
					c-9.81,9.56-18.9,19.13-27.65,29.54c-2.76,3.35-5.45,6.72-8.1,10.15c-1.32,1.7-2.62,3.42-3.93,5.15l-3.79,5.15
					c-5.15,6.96-10.02,14.17-14.24,21.88c-2.12,3.85-4.06,7.83-5.75,11.99c-1.66,4.2-3.08,8.55-3.94,13.24
					c-0.81,4.68-1.08,9.76,0.14,14.99c0.61,2.6,1.63,5.2,3.04,7.61c1.43,2.39,3.24,4.55,5.28,6.36c1.01,0.9,2.07,1.73,3.16,2.46
					c0.54,0.35,1.14,0.76,1.78,1.11c0.65,0.37,1.22,0.65,1.83,0.96c2.48,1.18,5.21,2.02,7.99,2.42c1.93,0.26,3.87,0.3,5.77,0.17
					c0.86-0.07,1.72-0.17,2.55-0.3c2.69-0.42,5.22-1.18,7.59-2.14c4.75-1.91,8.83-4.54,12.56-7.37c3.72-2.84,7.08-5.94,10.24-9.14
					c6.29-6.43,11.81-13.32,17.01-20.31c2.6-3.5,5.13-7.04,7.59-10.54l3.66-5.2c0.61-0.84,1.19-1.67,1.77-2.46
					c0.1-0.12,0.45-0.57,0.67-0.92l0.47-0.71l0.92-1.37L154.66,322.78z M184.01,270.81c-8.65,17.99-18.21,35.45-28.99,52.19
					c3.38-6.11,8.16-15.79,12.36-23.6c10.35-18.72,20.07-38.88,28.38-59.23c7.21-17.66,13.33-35.47,17.95-52.46l1.17-0.79
					C206.9,216.49,195.95,245.73,184.01,270.81z M218.39,173.13c-0.27,0.17-0.52,0.34-0.78,0.53l-2.98,2.05l-0.06,0.03
					c0.1-0.44,0.2-0.88,0.31-1.33l3.83-2.62C218.6,172.24,218.5,172.69,218.39,173.13z M229.44,236.67l0.51,0.63
					c0.19-0.19,0.37-0.37,0.56-0.55l-0.41-0.49C229.9,236.38,229.66,236.53,229.44,236.67z M229.24,236.41l-0.11,0.11l0.18,0.22
					l0.13-0.07L229.24,236.41z M150.11,334.65c2.1-3.01,4.16-6.06,6.09-8.76l0.36-0.49c0.12-0.17,0.27-0.35,0.37-0.53l0.31-0.47
					l0.78-1.18l1.54-2.36c1.02-1.58,2.03-3.17,3.04-4.77c1.98-3.2,3.94-6.42,5.87-9.68c3.85-6.53,7.54-13.21,11.09-20.01
					c9.87-19.73,18.48-39.93,26.06-59.55c-3.8,8.78-8.3,19.13-13.16,29.56c-4.83,10.44-10.02,20.97-14.9,30.25
					c-3.38,6.56-6.89,13.05-10.55,19.48c-1.84,3.21-3.7,6.41-5.61,9.58l-2.89,4.73l-1.47,2.36l-0.76,1.21
					c-0.13,0.18-0.22,0.35-0.35,0.51l-0.27,0.39l-0.35,0.51c-1.88,2.74-3.85,5.82-5.87,8.85c-2,3.05-4.07,6.12-6.22,9.16
					c-4.28,6.09-8.81,12.12-13.9,17.92c5.24-5.68,9.91-11.62,14.35-17.64C145.87,340.71,148.02,337.67,150.11,334.65z"/>
			</g>
		</g>
		<g>
			<g>
				<path d="M578.55,281.31c0,15.49,12.56,28.06,28.06,28.06c15.49,0,28.04-12.57,28.04-28.06c0-15.49-12.55-28.05-28.04-28.05
					C591.11,253.26,578.55,265.82,578.55,281.31"/>
				<path d="M606.61,281.31c6.38-1.98,12.75-3.96,12.75-12.75c0-7.05-5.71-12.76-12.75-12.76c14.08,0,25.5,11.43,25.5,25.51
					c0,14.08-11.42,25.51-25.5,25.51c-7.05,0-12.76-5.71-12.76-12.75C593.85,285.28,600.22,283.29,606.61,281.31"/>
				<path class="st3" d="M606.61,281.31c-6.39,1.98-12.76,3.97-12.76,12.76c0,7.03,5.71,12.75,12.76,12.75
					c-14.09,0-25.51-11.43-25.51-25.51c0-14.07,11.42-25.51,25.51-25.51c7.04,0,12.75,5.71,12.75,12.76
					C619.35,277.35,612.99,279.32,606.61,281.31"/>
				<path class="st3" d="M610.55,296.02c0,2.64-2.12,4.78-4.76,4.78c-2.63,0-4.78-2.14-4.78-4.78c0-2.63,2.14-4.76,4.78-4.76
					C608.43,291.27,610.55,293.39,610.55,296.02"/>
				<path d="M610.55,267.74c0,2.64-2.12,4.76-4.76,4.76c-2.63,0-4.78-2.12-4.78-4.76c0-2.64,2.14-4.76,4.78-4.76
					C608.43,262.97,610.55,265.1,610.55,267.74"/>
			</g>
			<path d="M237.34,283.92c4.27-1.42,6.85-4.63,6.85-8.87c0-2.46-0.93-4.76-2.56-6.38c-2.06-2.06-5.24-3.21-8.93-3.21h-11.58h-1.65
				v1.66v27.57v1.65h1.65h2.05h1.65v-1.65v-9.78h6.55l8.29,10.78l0.5,0.65h0.81h2.61h3.36l-2.06-2.66L237.34,283.92z M232.47,279.76
				h-7.65v-9.1h7.76c2.07,0,3.73,0.44,4.82,1.29c0.96,0.73,1.44,1.78,1.44,3.1C238.85,278.54,235.41,279.76,232.47,279.76z"/>
			<polygon points="261.17,291.15 261.17,283.38 275.3,283.38 276.94,283.38 276.94,281.73 276.94,279.83 276.94,278.18 
				275.3,278.18 261.17,278.18 261.17,270.66 277.06,270.66 278.72,270.66 278.72,269.01 278.72,267.12 278.72,265.46 
				277.06,265.46 257.47,265.46 255.81,265.46 255.81,267.12 255.81,294.69 255.81,296.34 257.47,296.34 277.28,296.34 
				278.93,296.34 278.93,294.69 278.93,292.8 278.93,291.15 277.28,291.15 			"/>
			<path d="M301.46,278.25c-6.71-1.37-6.71-2.98-6.71-4.4c0-2.13,2.14-3.62,5.09-3.62c2.76,0,4.97,0.83,7.14,2.71l1.29,1.12
				l1.08-1.32l1.31-1.62l1.03-1.3l-1.29-1.04c-3.28-2.63-6.32-3.72-10.5-3.72c-2.85,0-5.47,0.89-7.39,2.47
				c-2.02,1.66-3.11,3.95-3.11,6.44c0,6.46,5.38,8.4,10.62,9.46c6.47,1.31,6.47,2.88,6.47,4.26c0,2.33-2.19,3.9-5.32,3.9
				c-3.45,0-5.91-1.03-8.77-3.67l-1.25-1.14l-1.11,1.27l-1.34,1.53l-0.05,0.05l-1.03,1.17v0.01v0.02l1.22,1.07l0.01,0.02
				c0,0,0,0,0.01,0l1.25,1.1l0.02-0.04c3.34,2.59,6.77,3.77,10.93,3.77c6.25,0,10.78-3.86,10.78-9.17
				C311.83,281.17,306.29,279.24,301.46,278.25z"/>
			<polygon points="325.06,265.46 323.41,265.46 323.41,267.12 323.41,294.69 323.41,296.34 325.06,296.34 327.11,296.34 
				328.77,296.34 328.77,294.69 328.77,267.12 328.77,265.46 327.11,265.46 			"/>
			<path d="M352.63,265.46h-9.18h-1.65v1.66v27.57v1.65h1.65h9.18c9.29,0,16.3-6.63,16.3-15.43
				C368.93,271.92,362.08,265.46,352.63,265.46z M352.63,291.15h-5.48v-20.49h5.48c3.23,0,5.98,1.05,7.98,3.02
				c1.87,1.85,2.89,4.42,2.89,7.23C363.5,286.97,359.03,291.15,352.63,291.15z"/>
			<polygon points="385.81,291.15 385.81,283.38 399.95,283.38 401.59,283.38 401.59,281.73 401.59,279.83 401.59,278.18 
				399.95,278.18 385.81,278.18 385.81,270.66 401.72,270.66 403.38,270.66 403.38,269.01 403.38,267.12 403.38,265.46 
				401.72,265.46 382.11,265.46 380.46,265.46 380.46,267.12 380.46,294.69 380.46,296.34 382.11,296.34 401.92,296.34 
				403.57,296.34 403.57,294.69 403.57,292.8 403.57,291.15 401.92,291.15 			"/>
			<polygon points="437.31,265.46 435.65,265.46 435.65,267.12 435.65,286.36 419.59,266.09 419.09,265.46 418.29,265.46 
				416.7,265.46 416.68,265.44 416.68,265.46 416.37,265.46 414.72,265.46 414.72,267.12 414.72,294.69 414.72,296.34 
				416.37,296.34 418.33,296.34 419.98,296.34 419.98,294.69 419.98,274.93 436.44,295.71 436.95,296.34 437.75,296.34 
				439.28,296.34 440.93,296.34 440.93,294.69 440.93,267.12 440.93,265.46 439.28,265.46 			"/>
			<path d="M478.54,287.83l-1.15-1.12l-1.16,1.13c-2.77,2.74-5.11,3.8-8.32,3.8c-5.62,0-10.02-4.71-10.02-10.73
				c0-6.18,4.29-10.77,9.96-10.77c3.15,0,5.5,1.04,8.18,3.6l1.18,1.14l1.13-1.18l1.45-1.49l1.18-1.22l-1.25-1.15
				c-2.74-2.51-6.07-4.84-11.83-4.84c-8.14,0-14.62,6.18-15.36,14.33h-0.08v1.58v0.07v1.65h0.08c0.78,8.07,7.21,14.17,15.28,14.17
				c5.94,0,9.45-2.67,12.1-5.27l1.22-1.18l-1.22-1.18L478.54,287.83z"/>
			<polygon points="495.98,291.15 495.98,283.38 510.12,283.38 511.78,283.38 511.78,281.73 511.78,279.83 511.78,278.18 
				510.12,278.18 495.98,278.18 495.98,270.66 511.88,270.66 513.55,270.66 513.55,269.01 513.55,267.12 513.55,265.46 
				511.88,265.46 492.28,265.46 490.62,265.46 490.62,267.12 490.62,294.69 490.62,296.34 492.28,296.34 512.08,296.34 
				513.73,296.34 513.73,294.69 513.73,292.8 513.73,291.15 512.08,291.15 			"/>
			<polygon points="565.9,265.46 564.25,265.46 564.25,267.12 564.25,278.22 549.92,278.22 549.92,267.12 549.92,265.46 
				548.27,265.46 546.21,265.46 544.55,265.46 544.55,267.12 544.55,294.69 544.55,296.34 546.21,296.34 548.27,296.34 
				549.92,296.34 549.92,294.69 549.92,283.42 564.25,283.42 564.25,294.69 564.25,296.34 565.9,296.34 567.96,296.34 
				569.61,296.34 569.61,294.69 569.61,267.12 569.61,265.46 567.96,265.46 			"/>
			<polygon points="643.83,265.46 642.18,265.46 642.18,267.12 642.18,269.01 642.18,270.66 643.83,270.66 651.79,270.66 
				651.79,294.69 651.79,296.34 653.44,296.34 655.47,296.34 657.12,296.34 657.12,294.69 657.12,270.66 665.09,270.66 
				666.74,270.66 666.74,269.01 666.74,267.12 666.74,265.46 665.09,265.46 			"/>
			<polygon points="682.89,291.15 682.89,283.38 697.02,283.38 698.68,283.38 698.68,281.73 698.68,279.83 698.68,278.18 
				697.02,278.18 682.89,278.18 682.89,270.66 698.79,270.66 700.45,270.66 700.45,269.01 700.45,267.12 700.45,265.46 
				698.79,265.46 679.18,265.46 677.53,265.46 677.53,267.12 677.53,294.69 677.53,296.34 679.18,296.34 698.99,296.34 
				700.64,296.34 700.64,294.69 700.64,292.8 700.64,291.15 698.99,291.15 			"/>
			<polygon points="731.68,291.15 717.15,291.15 717.15,267.12 717.15,265.46 715.5,265.46 713.43,265.46 711.79,265.46 
				711.79,267.12 711.79,294.69 711.79,296.34 713.43,296.34 731.68,296.34 733.32,296.34 733.32,294.69 733.32,292.8 
				733.32,291.15 			"/>
		</g>
	</g>
</g>
</svg>
